<svg width="32" height="30" viewBox="0 0 32 30" fill="none" xmlns="http://www.w3.org/2000/svg">
<path d="M1.0387 29.2718H5.19702C5.77071 29.2718 6.23572 28.8068 6.23572 28.2331V10.0571C6.23572 9.48339 5.77071 9.01843 5.19702 9.01843H1.0387C0.464955 9.01843 0 9.48339 0 10.0571V28.2331C0 28.8067 0.464955 29.2718 1.0387 29.2718Z" fill="black"/>
<path d="M1.0387 5.82299H5.19702C5.77071 5.82299 6.23572 5.35798 6.23572 4.78429V1.09168C6.23572 0.517991 5.77071 0.0529785 5.19702 0.0529785H1.0387C0.464955 0.0529785 0 0.517991 0 1.09168V4.78429C0 5.35798 0.464955 5.82299 1.0387 5.82299Z" fill="black"/>
<path d="M30.4222 11.1267C29.8379 10.3575 28.9763 9.72499 27.837 9.22919C26.6977 8.73374 25.4402 8.48584 24.0643 8.48584C21.2712 8.48584 18.9045 9.55179 16.9642 11.6841C16.5781 12.1084 16.2974 12.0156 16.2974 11.4419V10.0572C16.2974 9.48345 15.8323 9.0185 15.2586 9.0185H11.5441C10.9703 9.0185 10.5054 9.48345 10.5054 10.0572V28.2331C10.5054 28.8068 10.9704 29.2719 11.5441 29.2719H15.7024C16.2761 29.2719 16.7411 28.8068 16.7411 28.2331V21.912C16.7411 19.2786 16.9001 17.4736 17.2181 16.4972C17.5361 15.5209 18.1243 14.7368 18.9824 14.145C19.8405 13.5532 20.8094 13.2572 21.8896 13.2572C22.7328 13.2572 23.4541 13.4644 24.0533 13.8787C24.6526 14.2931 25.0853 14.8735 25.3516 15.6207C25.6181 16.3679 25.7511 18.0137 25.7511 20.5585V28.2331C25.7511 28.8068 26.2161 29.2718 26.7898 29.2718H30.9481C31.5218 29.2718 31.9867 28.8068 31.9867 28.2331V17.9397C31.9867 16.1201 31.8721 14.722 31.643 13.7456C31.4139 12.7692 31.0069 11.8962 30.4222 11.1267Z" fill="black"/>
</svg>
