<svg width="32" height="32" viewBox="0 0 32 32" fill="none" xmlns="http://www.w3.org/2000/svg">
<path fill-rule="evenodd" clip-rule="evenodd" d="M31.1297 5.51413C31.5227 6.52485 31.7971 7.69128 31.8719 9.38791C31.9467 11.0909 31.953 11.6335 31.953 15.9688C31.953 20.3041 31.9343 20.8467 31.8595 22.5497C31.7847 24.2463 31.51 25.4067 31.1173 26.4235C30.2876 28.5692 28.5909 30.2658 26.445 31.0955C25.4345 31.4885 24.2681 31.7629 22.5714 31.8377C20.8685 31.9128 20.3258 31.9313 15.9906 31.9313C11.6553 31.9313 11.1124 31.9128 9.40965 31.8377C7.71277 31.7629 6.55269 31.4885 5.53587 31.0955C4.47544 30.6964 3.50858 30.0663 2.71009 29.2554C1.89918 28.4569 1.2693 27.4963 0.863846 26.4235C0.470814 25.4128 0.196204 24.2463 0.121399 22.5497C0.0465942 20.8467 0.027832 20.3041 0.027832 15.9688C0.027832 11.6335 0.0465942 11.0909 0.127735 9.38158C0.20254 7.68494 0.476906 6.52485 0.869937 5.50804C1.2693 4.44761 1.89918 3.48075 2.71009 2.68226C3.50858 1.86501 4.46911 1.24123 5.54221 0.83577C6.55269 0.442982 7.71911 0.168372 9.41575 0.0935673C11.1187 0.0187622 11.6614 0 15.9966 0C20.3319 0 20.8746 0.0187622 22.5839 0.0999025C24.2805 0.174708 25.4408 0.449074 26.4574 0.842105C27.5178 1.24123 28.4847 1.87135 29.2832 2.68226C30.1004 3.48075 30.7242 4.44128 31.1297 5.51413ZM28.4474 25.3879C28.6657 24.8265 28.9277 23.9844 28.9964 22.425C29.0712 20.7407 29.09 20.2417 29.09 15.9812C29.09 11.7208 29.0712 11.2156 28.9964 9.53143C28.9277 7.97807 28.6657 7.12987 28.4474 6.56847C28.1916 5.87597 27.7861 5.25219 27.2559 4.73441C26.7444 4.20419 26.1143 3.79873 25.4221 3.54313C24.8607 3.32481 24.0186 3.06287 22.4591 2.99415C20.781 2.91935 20.2759 2.90058 16.0091 2.90058C11.7488 2.90058 11.2435 2.91935 9.55927 2.99415C8.00615 3.06287 7.15771 3.32481 6.5963 3.54313C5.90381 3.79873 5.28003 4.20419 4.76248 4.73441C4.22593 5.2461 3.82047 5.87597 3.56463 6.56847C3.3463 7.12987 3.08436 7.97198 3.01589 9.53143C2.94084 11.2093 2.92233 11.7208 2.92233 15.9812C2.92233 20.2417 2.94084 20.7471 3.01589 22.4313C3.08436 23.9844 3.3463 24.8328 3.56463 25.3942C3.82047 26.0865 4.22593 26.7103 4.75615 27.2281C5.2676 27.7583 5.89772 28.1637 6.58997 28.4196C7.15137 28.6379 7.99347 28.8999 9.55293 28.9683C11.231 29.0434 11.7425 29.0619 16.003 29.0619C20.2635 29.0619 20.7686 29.0434 22.4528 28.9683C24.0061 28.8999 24.8543 28.6379 25.4157 28.4196C26.8068 27.883 27.9109 26.779 28.4474 25.3879Z" fill="black"/>
<path fill-rule="evenodd" clip-rule="evenodd" d="M7.79395 15.9688C7.79395 11.44 11.4682 7.76605 15.9967 7.76605C20.5254 7.76605 24.1994 11.44 24.1994 15.9688C24.1994 20.4975 20.5254 24.1715 15.9967 24.1715C11.4682 24.1715 7.79395 20.4975 7.79395 15.9688ZM10.6758 15.9688C10.6758 18.9069 13.0588 21.2897 15.9967 21.2897C18.9348 21.2897 21.3176 18.9069 21.3176 15.9688C21.3176 13.0307 18.9348 10.6479 15.9967 10.6479C13.0588 10.6479 10.6758 13.0307 10.6758 15.9688Z" fill="black"/>
<path d="M26.4391 7.44176C26.4391 8.49926 25.5816 9.35672 24.5238 9.35672C23.4663 9.35672 22.6089 8.49926 22.6089 7.44176C22.6089 6.38401 23.4663 5.52679 24.5238 5.52679C25.5816 5.52679 26.4391 6.38401 26.4391 7.44176Z" fill="black"/>
</svg>
