<?xml version="1.0" encoding="UTF-8"?>
<svg width="32px" height="32px" viewBox="0 0 32 32" version="1.1" xmlns="http://www.w3.org/2000/svg" xmlns:xlink="http://www.w3.org/1999/xlink">
    <title>icon_tw</title>
    <g id="Blog" stroke="none" stroke-width="1" fill="none" fill-rule="evenodd">
        <g id="Article-Blog-Desktop" transform="translate(-52.000000, -1026.000000)">
            <g id="icon_tw" transform="translate(52.000000, 1026.000000)">
                <rect id="Rectangle" x="0" y="0" width="32" height="32"></rect>
                <path d="M32,6.078 C30.81,6.6 29.542,6.946 28.22,7.114 C29.58,6.302 30.618,5.026 31.106,3.488 C29.838,4.244 28.438,4.778 26.946,5.076 C25.742,3.794 24.026,3 22.154,3 C18.522,3 15.598,5.948 15.598,9.562 C15.598,10.082 15.642,10.582 15.75,11.058 C10.296,10.792 5.47,8.178 2.228,4.196 C1.662,5.178 1.33,6.302 1.33,7.512 C1.33,9.784 2.5,11.798 4.244,12.964 C3.19,12.944 2.156,12.638 1.28,12.156 C1.28,12.176 1.28,12.202 1.28,12.228 C1.28,15.416 3.554,18.064 6.536,18.674 C6.002,18.82 5.42,18.89 4.816,18.89 C4.396,18.89 3.972,18.866 3.574,18.778 C4.424,21.376 6.836,23.286 9.704,23.348 C7.472,25.094 4.638,26.146 1.57,26.146 C1.032,26.146 0.516,26.122 0,26.056 C2.906,27.93 6.35,29 10.064,29 C22.136,29 28.736,19 28.736,10.332 C28.736,10.042 28.726,9.762 28.712,9.484 C30.014,8.56 31.108,7.406 32,6.078 Z" id="Path" fill="#000000" fill-rule="nonzero"></path>
            </g>
        </g>
    </g>
</svg>