<svg viewBox="0 0 32 32" fill="none" xmlns="http://www.w3.org/2000/svg">
<path d="M1.0387 30.2188H5.19702C5.77071 30.2188 6.23572 29.7538 6.23572 29.1801V11.0042C6.23572 10.4304 5.77071 9.96545 5.19702 9.96545H1.0387C0.464955 9.96545 0 10.4304 0 11.0042V29.1801C0 29.7537 0.464955 30.2188 1.0387 30.2188Z" fill="black"/>
<path d="M1.0387 6.77001H5.19702C5.77071 6.77001 6.23572 6.305 6.23572 5.73131V2.0387C6.23572 1.46501 5.77071 1 5.19702 1H1.0387C0.464955 1 0 1.46501 0 2.0387V5.73131C0 6.305 0.464955 6.77001 1.0387 6.77001Z" fill="black"/>
<path d="M30.4222 12.0736C29.8379 11.3045 28.9763 10.6719 27.837 10.1761C26.6977 9.6807 25.4402 9.4328 24.0643 9.4328C21.2712 9.4328 18.9045 10.4988 16.9642 12.6311C16.5781 13.0553 16.2974 12.9626 16.2974 12.3888V11.0042C16.2974 10.4304 15.8323 9.96546 15.2586 9.96546H11.5441C10.9703 9.96546 10.5054 10.4304 10.5054 11.0042V29.1801C10.5054 29.7538 10.9704 30.2189 11.5441 30.2189H15.7024C16.2761 30.2189 16.7411 29.7538 16.7411 29.1801V22.859C16.7411 20.2256 16.9001 18.4206 17.2181 17.4442C17.5361 16.4678 18.1243 15.6838 18.9824 15.092C19.8405 14.5002 20.8094 14.2042 21.8896 14.2042C22.7328 14.2042 23.4541 14.4113 24.0533 14.8257C24.6526 15.24 25.0853 15.8204 25.3516 16.5677C25.6181 17.3149 25.7511 18.9607 25.7511 21.5054V29.18C25.7511 29.7537 26.2161 30.2188 26.7898 30.2188H30.9481C31.5218 30.2188 31.9867 29.7537 31.9867 29.18V18.8867C31.9867 17.0671 31.8721 15.6689 31.643 14.6925C31.4139 13.7162 31.0069 12.8432 30.4222 12.0736Z" fill="black"/>
</svg>
