<?xml version="1.0" encoding="UTF-8"?>
<svg width="32px" height="32px" viewBox="0 0 32 32" version="1.1" xmlns="http://www.w3.org/2000/svg" xmlns:xlink="http://www.w3.org/1999/xlink">
    <title>icon_li</title>
    <g id="Blog" stroke="none" stroke-width="1" fill="none" fill-rule="evenodd">
        <g id="Article-Blog-Desktop" transform="translate(-52.000000, -1082.000000)" fill="#000000" fill-rule="nonzero">
            <g id="icon_li" transform="translate(52.000000, 1082.000000)">
                <path d="M6.72351477,31.7978871 L6.72351477,10.8849588 L0.259851472,10.8849588 L0.259851472,31.7978871 L6.72351477,31.7978871 Z M6.72351477,3.4722452 C6.68501512,1.60075424 5.43773216,0.175824176 3.41149067,0.175824176 C1.38472181,0.175824176 0.0604395605,1.60075424 0.0604395605,3.4722452 C0.0604395605,5.30308839 1.34622216,6.76923077 3.333964,6.76923077 L3.37246365,6.76923077 C5.43773216,6.76923077 6.72351477,5.30308839 6.72351477,3.4722452 Z M17.2686192,31.7978877 L17.2686192,19.8827119 C17.2686192,19.2450302 17.314709,18.6073486 17.5022254,18.1527637 C18.0148961,16.8780318 19.1816641,15.5584728 21.1407989,15.5584728 C23.7073095,15.5584728 25.3168891,17.0150385 25.3168891,19.8827117 L25.3168891,31.7978877 L31.8241758,31.7978877 L31.8241758,19.5638711 C31.8241758,13.0102718 28.3257661,9.96076458 23.6593256,9.96076458 C19.8332358,9.96076458 18.153797,12.0998392 17.2212666,13.5557737 L17.2679878,10.7587569 L10.7719566,10.7587569 C10.865399,12.7608246 10.7719566,31.7978877 10.7719566,31.7978877 L17.2686192,31.7978877 Z" id="Shape"></path>
            </g>
        </g>
    </g>
</svg>