<?xml version="1.0" encoding="UTF-8"?>
<!DOCTYPE svg PUBLIC "-//W3C//DTD SVG 1.1//EN" "http://www.w3.org/Graphics/SVG/1.1/DTD/svg11.dtd">
<!-- Creator: CorelDRAW 2018 (64-Bit) -->
<svg xmlns="http://www.w3.org/2000/svg" xml:space="preserve" width="162.879mm" height="163.796mm" version="1.1" style="shape-rendering:geometricPrecision; text-rendering:geometricPrecision; image-rendering:optimizeQuality; fill-rule:evenodd; clip-rule:evenodd"
viewBox="0 0 666.26 670.02"
 xmlns:xlink="http://www.w3.org/1999/xlink">
 <defs>
  
 </defs>
 <g id="Слой_x0020_1">
  <metadata id="CorelCorpID_0Corel-Layer"/>
  <path class="fil0" d="M558.22 25.52c62.14,53.49 46.52,173.52 -34.89,268.09 -75.48,87.69 -181,122.7 -245.5,84.7l-251.08 291.7 -26.75 -23.02 251.08 -291.7c-47.17,-58.13 -28.26,-167.68 47.22,-255.37 81.41,-94.58 197.77,-127.89 259.91,-74.4zm-207.53 385.92c15.8,5.89 33.42,11.66 52.12,16.47 1.48,-5.12 6.2,-8.87 11.79,-8.87 6.78,0 12.27,5.49 12.27,12.27 0,0.69 -0.06,1.37 -0.17,2.03 8.98,1.77 18.11,3.26 27.33,4.38 -1.14,-1.87 -1.81,-4.06 -1.81,-6.41 0,-6.78 5.49,-12.27 12.27,-12.27 6.78,0 12.27,5.49 12.27,12.27 0,3.15 -1.19,6.02 -3.14,8.2 10.58,0.64 21.2,0.72 31.75,0.13 -2.02,-2.19 -3.25,-5.11 -3.25,-8.32 0,-6.78 5.49,-12.27 12.27,-12.27 6.78,0 12.27,5.49 12.27,12.27 0,2.35 -0.66,4.55 -1.81,6.42 9.19,-1.3 18.28,-3.2 27.19,-5.76 -0.01,-0.22 -0.02,-0.44 -0.02,-0.66 0,-6.78 5.49,-12.27 12.27,-12.27 4.04,0 7.63,1.96 9.87,4.97 3.91,-1.71 7.76,-3.58 11.56,-5.62 -4.85,-1.64 -8.34,-6.23 -8.34,-11.63 0,-6.78 5.49,-12.27 12.27,-12.27 6.78,0 12.27,5.49 12.27,12.27 0,0.61 -0.04,1.2 -0.13,1.79 6.57,-4.58 12.93,-9.73 19.01,-15.51 -1.72,0.92 -3.69,1.45 -5.79,1.45l-0.01 0 -0.01 0 -0.01 0 -0.01 0 -0.19 -0 -0.01 0 -0.01 -0 -0.01 0 -0.01 -0 -0.01 0 -0.01 0 -0.01 -0 -0.01 0 -0.01 0 -0.1 -0 -0.01 -0 -0.01 0 -0.01 -0 -0.01 0 -0.01 -0 -0 0c-0.13,0 -0.27,0.01 -0.41,0.01 -6.78,0 -12.27,-5.49 -12.27,-12.27 0,-6.78 5.49,-12.27 12.27,-12.27 0.14,0 0.27,0 0.41,0.01l0 0 0.01 0 0.01 -0 0.01 -0 0.01 -0 0.01 0 0.1 -0 0.01 0 0.01 0 0.01 -0 0.01 0 0.01 -0 0.01 0 0.01 0 0.01 -0 0.01 0 0.19 -0 0.01 -0 0.01 0 0.01 -0 0.01 0c6.78,0 12.27,5.49 12.27,12.27 0,2.12 -0.54,4.11 -1.48,5.85 0.6,-0.62 1.2,-1.22 1.79,-1.85 4.93,-5.26 9.31,-10.71 13.21,-16.33 -0.41,0.04 -0.83,0.06 -1.25,0.06 -6.78,0 -12.27,-5.49 -12.27,-12.27 0,-6.78 5.49,-12.27 12.27,-12.27 5.09,0 9.45,3.09 11.31,7.5 1.87,-3.75 3.56,-7.55 5.07,-11.41 -2.04,-2.19 -3.29,-5.13 -3.29,-8.36 0,-5.85 4.1,-10.75 9.58,-11.97 1.89,-8.15 3.09,-16.46 3.73,-24.88 -0.34,0.03 -0.68,0.04 -1.03,0.04 -6.78,0 -12.27,-5.49 -12.27,-12.27 0,-6.78 5.49,-12.27 12.27,-12.27 0.45,0 0.89,0.02 1.32,0.07 -0.4,-8.19 -1.27,-16.43 -2.53,-24.67 -6.21,-0.61 -11.06,-5.84 -11.06,-12.21 0,-4.7 2.65,-8.79 6.53,-10.85 -4.1,-17.25 -9.7,-34.32 -16.16,-50.8 -0.85,0.19 -1.74,0.29 -2.64,0.29 -6.78,0 -12.27,-5.49 -12.27,-12.27 0,-4.29 2.2,-8.07 5.54,-10.26 -2.08,-4.62 -4.21,-9.17 -6.37,-13.64 -0.34,6.48 -5.69,11.63 -12.25,11.63 -1.58,0 -3.09,-0.3 -4.48,-0.84 -0.53,3.83 -1.15,7.63 -1.87,11.4 -1.43,7.55 -3.21,15.04 -5.33,22.47 1.6,-4.92 6.22,-8.48 11.67,-8.48 6.78,0 12.27,5.49 12.27,12.27 0,6.78 -5.49,12.27 -12.27,12.27 -6.78,0 -12.27,-5.49 -12.27,-12.27 0,-1.04 0.13,-2.05 0.37,-3.01 -1.69,5.87 -3.58,11.69 -5.66,17.46 3.2,2.22 5.29,5.91 5.29,10.09 0,6.78 -5.49,12.27 -12.27,12.27l-0.01 -0 -0.01 0 -0.01 0 -0.01 0 -0.19 -0 -0.01 0 -0.01 -0 -0.01 -0 -0.01 0 -0.01 -0 -0.01 0 -0.01 -0 -0.01 0 -0.01 0 -0.1 -0 -0.01 -0 -0.01 0 -0.01 -0 -0.01 0 -0.01 -0 -0 0c-0.14,0 -0.27,0.01 -0.41,0.01 -0.44,0 -0.87,-0.02 -1.29,-0.07 -7.92,17.4 -17.48,34.13 -28.23,49.88 1.3,-0.47 2.7,-0.73 4.16,-0.73 0.14,0 0.27,0 0.41,0.01l0 0 0.01 -0 0.01 0 0.01 -0 0.01 0 0.01 -0 0.1 -0 0.01 0 0.01 0 0.01 -0 0.01 -0 0.01 0 0.01 0 0.01 0 0.01 -0 0.01 -0 0.19 -0 0.01 0 0.01 0 0.01 0 0.01 0c6.78,0 12.27,5.49 12.27,12.27 0,6.78 -5.49,12.27 -12.27,12.27l-0.01 0 -0.01 0 -0.01 0 -0.01 0 -0.19 -0 -0.01 0 -0.01 -0 -0.01 0 -0.01 0 -0.01 -0 -0.01 0 -0.01 -0 -0.01 0 -0.01 0 -0.1 -0 -0.01 0 -0.01 0 -0.01 -0 -0.01 0 -0.01 -0 -0 0c-0.14,0 -0.27,0.01 -0.41,0.01 -6.78,0 -12.27,-5.49 -12.27,-12.27l0 -0.17c-3.2,4.31 -6.49,8.54 -9.85,12.68 5.62,1.12 9.85,6.08 9.85,12.03 0,6.78 -5.49,12.27 -12.27,12.27 -5.32,0 -9.85,-3.39 -11.55,-8.13 -2.78,3.03 -5.61,6.02 -8.51,8.97 4.56,1.79 7.79,6.23 7.79,11.43 0,6.78 -5.49,12.27 -12.27,12.27l-0.01 0 -0.01 0 -0.01 0 -0.01 0 -0.19 -0 -0.01 0 -0.01 -0 -0.01 0 -0.01 0 -0.01 -0 -0.01 0 -0.01 0 -0.01 -0 -0.01 0 -0.1 -0 -0.01 -0 -0.01 -0 -0.01 0 -0.01 0 -0.01 -0 -0 0c-0.14,0 -0.27,0.01 -0.41,0.01 -5.18,0 -9.61,-3.21 -11.41,-7.74 -3.14,2.81 -6.34,5.57 -9.59,8.27 5.05,1.52 8.73,6.21 8.73,11.75 0,6.78 -5.49,12.27 -12.27,12.27l-0.01 0 -0.01 0 -0.01 0 -0.01 -0 -0.18 -0 -0.01 0 -0.01 -0 -0.01 0 -0.01 0 -0.01 -0 -0.01 0 -0.01 -0 -0.01 0 -0.01 -0 -0.1 -0 -0.01 -0 -0.01 0 -0.01 -0 -0.01 0 -0.01 -0 -0 0c-0.14,0 -0.27,0.01 -0.41,0.01 -6.38,0 -11.63,-4.88 -12.22,-11.11 -16.46,12.01 -34.04,22.45 -52.42,30.75 -2.24,2.97 -5.8,4.9 -9.81,4.9 -0.52,0 -1.02,-0.03 -1.52,-0.09 -3.75,1.49 -7.53,2.88 -11.34,4.18 -0.88,0.3 -1.76,0.59 -2.64,0.88 1.51,2.04 2.41,4.57 2.41,7.3 0,6.78 -5.49,12.27 -12.27,12.27 -6.78,0 -12.27,-5.49 -12.27,-12.27 0,-0.44 0.02,-0.88 0.07,-1.3 -8.47,1.83 -17.07,3.14 -25.69,3.83 -0.16,0.74 -0.38,1.46 -0.66,2.15zm271.24 -284.81c-3.18,-6.24 -6.4,-12.3 -9.63,-18.14 0.31,5.41 0.38,10.85 0.23,16.28 0.81,-0.17 1.65,-0.26 2.52,-0.26 2.55,0 4.92,0.78 6.88,2.11zm-169.69 280.14c0,6.78 -5.49,12.27 -12.27,12.27l-0.01 0 -0.01 0 -0.01 0 -0.01 0 -0.18 -0 -0.01 -0 -0.01 0 -0.01 0 -0.01 0 -0.01 -0 -0.01 -0 -0.01 0 -0.01 0 -0.01 0 -0.1 -0 -0.01 0 -0.01 0 -0.01 -0 -0.01 0 -0.01 -0 -0 0c-0.14,0 -0.27,0.01 -0.41,0.01 -6.78,0 -12.27,-5.49 -12.27,-12.27 0,-6.78 5.49,-12.27 12.27,-12.27 0.14,0 0.27,0 0.41,0.01l0 0 0.01 -0 0.01 0 0.01 -0 0.01 0 0.01 -0 0.1 -0 0.01 0 0.01 0 0.01 -0 0.01 0 0.01 -0 0.01 0 0.01 0 0.01 -0 0.01 0 0.18 -0 0.01 0 0.01 0 0.01 0 0.01 0c6.78,0 12.27,5.49 12.27,12.27zm150.53 -147.26c0,6.78 -5.49,12.27 -12.27,12.27l-0.01 0 -0.01 0 -0.01 0 -0.01 0 -0.19 -0 -0.01 0 -0.01 -0 -0.01 0 -0.01 0 -0.01 -0 -0.01 0 -0.01 -0 -0.01 0 -0.01 0 -0.1 -0 -0.01 0 -0.01 0 -0.01 -0 -0.01 0 -0.01 -0 -0 0c-0.14,0 -0.27,0.01 -0.41,0.01 -6.78,0 -12.27,-5.49 -12.27,-12.27 0,-6.78 5.49,-12.27 12.27,-12.27 0.14,-0 0.27,0 0.41,0.01l0 0 0.01 -0 0.01 0 0.01 -0 0.01 0 0.01 -0 0.1 -0 0.01 0 0.01 0 0.01 -0 0.01 0 0.01 -0 0.01 0 0.01 0 0.01 -0 0.01 0 0.18 -0 0.01 0 0.01 -0 0.01 0 0.01 -0c6.78,0 12.27,5.49 12.27,12.27zm-100.63 147.26c0,6.78 -5.49,12.27 -12.27,12.27l-0.01 0 -0.01 0 -0.01 0 -0.01 0 -0.18 -0 -0.01 -0 -0.01 0 -0.01 0 -0.01 0 -0.01 -0 -0.01 -0 -0.01 0 -0.01 0 -0.01 0 -0.1 -0 -0.01 -0 -0.01 0 -0.01 -0 -0.01 0 -0.01 -0 -0 0c-0.14,0 -0.27,0.01 -0.41,0.01 -6.78,0 -12.27,-5.49 -12.27,-12.27 0,-6.78 5.49,-12.27 12.27,-12.27 0.14,0 0.27,0 0.41,0.01l0 0 0.01 -0 0.01 0 0.01 -0 0.01 0 0.01 -0 0.1 -0 0.01 0 0.01 0 0.01 -0 0.01 0 0.01 -0 0.01 0 0.01 0 0.01 -0 0.01 0 0.18 -0 0.01 0 0.01 0 0.01 0 0.01 0c6.78,0 12.27,5.49 12.27,12.27zm75.27 -73.63c0,6.78 -5.49,12.27 -12.27,12.27l-0.01 0 -0.01 0 -0.01 0 -0.01 0 -0.19 -0 -0.01 0 -0.01 -0 -0.01 0 -0.01 0 -0.01 -0 -0.01 0 -0.01 0 -0.01 -0 -0.01 0 -0.1 -0 -0.01 -0 -0.01 -0 -0.01 0 -0.01 0 -0.01 -0 -0 0c-0.14,0 -0.27,0.01 -0.41,0.01 -6.78,0 -12.27,-5.49 -12.27,-12.27 0,-6.78 5.49,-12.27 12.27,-12.27 0.14,0 0.27,0 0.41,0.01l0 0 0.01 -0 0.01 0 0.01 -0 0.01 0 0.01 -0 0.1 -0 0.01 0 0.01 0 0.01 -0 0.01 0 0.01 -0 0.01 0 0.01 0 0.01 -0 0.01 0 0.19 -0 0.01 0 0.01 0 0.01 0 0.01 0c6.78,0 12.27,5.49 12.27,12.27zm75.27 -73.63c0,6.78 -5.49,12.27 -12.27,12.27l-0.01 0 -0.01 0 -0.01 0 -0.01 0 -0.18 -0 -0.01 0 -0.01 -0 -0.01 0 -0.01 0 -0.01 -0 -0.01 0 -0.01 -0 -0.01 0 -0.01 0 -0.1 -0 -0.01 0 -0.01 0 -0.01 -0 -0.01 0 -0.01 -0 -0 0c-0.14,0 -0.27,0.01 -0.41,0.01 -6.78,0 -12.27,-5.49 -12.27,-12.27 0,-6.78 5.49,-12.27 12.27,-12.27 0.14,-0 0.27,0 0.41,0.01l0 0 0.01 -0 0.01 0 0.01 -0 0.01 0 0.01 -0 0.1 -0 0.01 0 0.01 0 0.01 -0 0.01 0 0.01 -0 0.01 0 0.01 0 0.01 -0 0.01 0 0.18 -0 0.01 0 0.01 -0 0.01 0 0.01 -0c6.78,0 12.27,5.49 12.27,12.27zm-100.63 147.26c0,6.78 -5.49,12.27 -12.27,12.27 -6.78,0 -12.27,-5.49 -12.27,-12.27 0,-6.78 5.49,-12.27 12.27,-12.27 6.78,0 12.27,5.49 12.27,12.27zm75.27 -73.63c0,6.78 -5.49,12.27 -12.27,12.27 -6.78,0 -12.27,-5.49 -12.27,-12.27 0,-6.78 5.49,-12.27 12.27,-12.27 6.78,0 12.27,5.49 12.27,12.27zm-100.63 49.09c0,6.78 -5.49,12.27 -12.27,12.27 -6.78,0 -12.27,-5.49 -12.27,-12.27 0,-6.78 5.49,-12.27 12.27,-12.27 6.78,0 12.27,5.49 12.27,12.27zm75.27 -73.63c0,6.78 -5.49,12.27 -12.27,12.27 -6.78,0 -12.27,-5.49 -12.27,-12.27 0,-6.78 5.49,-12.27 12.27,-12.27 6.78,0 12.27,5.49 12.27,12.27zm-25.36 73.63c0,6.78 -5.49,12.27 -12.27,12.27 -6.78,0 -12.27,-5.49 -12.27,-12.27 0,-6.78 5.49,-12.27 12.27,-12.27 6.78,0 12.27,5.49 12.27,12.27zm75.27 -73.63c0,6.78 -5.49,12.27 -12.27,12.27 -6.78,0 -12.27,-5.49 -12.27,-12.27 0,-6.78 5.49,-12.27 12.27,-12.27 6.78,0 12.27,5.49 12.27,12.27zm0.82 -98.17c0,6.78 -5.49,12.27 -12.27,12.27l-0.01 0 -0.01 0 -0.01 0 -0.01 -0 -0.19 -0 -0.01 0 -0.01 -0 -0.01 -0 -0.01 0 -0.01 -0 -0.01 0 -0.01 -0 -0.01 0 -0.01 0 -0.1 -0 -0.01 -0 -0.01 0 -0.01 -0 -0.01 0 -0.01 -0 -0 0c-0.14,0 -0.27,0.01 -0.41,0.01 -6.78,0 -12.27,-5.49 -12.27,-12.27 0,-6.78 5.49,-12.27 12.27,-12.27 0.14,0 0.27,0 0.41,0.01l0 0 0.01 -0 0.01 0 0.01 -0 0.01 0 0.01 -0 0.1 -0 0.01 -0 0.01 0 0.01 -0 0.01 0 0.01 -0 0.01 0 0.01 0 0.01 -0 0.01 0 0.19 -0 0.01 0 0.01 -0 0.01 0 0.01 0c6.78,-0 12.27,5.49 12.27,12.27zm-100.63 147.26c0,6.78 -5.49,12.27 -12.27,12.27 -6.78,0 -12.27,-5.49 -12.27,-12.27 0,-6.78 5.49,-12.27 12.27,-12.27 6.78,0 12.27,5.49 12.27,12.27zm75.27 -73.63c0,6.78 -5.49,12.27 -12.27,12.27 -6.78,0 -12.27,-5.49 -12.27,-12.27 0,-6.78 5.49,-12.27 12.27,-12.27 6.78,0 12.27,5.49 12.27,12.27zm-25.36 73.63c0,6.78 -5.49,12.27 -12.27,12.27 -6.78,0 -12.27,-5.49 -12.27,-12.27 0,-6.78 5.49,-12.27 12.27,-12.27 6.78,0 12.27,5.49 12.27,12.27zm-125.17 24.54c0,6.78 -5.49,12.27 -12.27,12.27 -6.78,0 -12.27,-5.49 -12.27,-12.27 0,-6.78 5.49,-12.27 12.27,-12.27 6.78,0 12.27,5.49 12.27,12.27zm150.53 -147.26c0,6.78 -5.49,12.27 -12.27,12.27 -6.78,0 -12.27,-5.49 -12.27,-12.27 0,-6.78 5.49,-12.27 12.27,-12.27 6.78,-0 12.27,5.49 12.27,12.27zm-92.11 -182.7c47.37,40.77 30.08,138.52 -38.61,218.33 -68.69,79.81 -162.78,111.45 -210.15,70.68 -47.37,-40.77 -30.08,-138.52 38.61,-218.33 68.69,-79.81 162.78,-111.45 210.15,-70.68z"/>
 </g>
</svg>
