<svg xmlns="http://www.w3.org/2000/svg" fill="#000000" viewBox="0 0 120 55">
    <g >
        <path d="M26.5 26.001V26c-.168.163-.333.334-.5.5h.008c.164-.168.328-.333.492-.499M84.171 38.876c-.411.964-.053 1.65.776 1.942.83.292 1.636.338 1.946-.673.31-1.011-.069-1.783-.898-2.075-.829-.292-1.648.395-1.824.806"/>
        <path d="M72.185 37.025c-.057-.192 1.326-1.369 1.39-1.099.136.584-1.272 1.506-1.39 1.1m-2.37-.652c-.426-.421-.57-1.951 1.755-2.01.742-.018 1.278.451 1.624.905-1.444 1.327-2.832 1.646-3.38 1.105m-5.122 2.965c-.034-.097-.062-.375-.08-.78.14.095.301.199.48.311a4.41 4.41 0 0 1-.4.469m-6.963-7.425c.142-8.503 1.639-12.198 2.783-12.198 1.566 0 .044 6.198-.711 8.333a76.54 76.54 0 0 1-2.056 5.129c-.017-.42-.023-.843-.016-1.264m-4.135-2.422c.402.008.557.504.618 1.02-.02 1.522-.517 3.813-1.85 6.095-.396-2.863.102-7.137 1.232-7.115M39.06 26.63c-1.248.047-2.356.078-3.348.097 2.57-3.301 5.01-5.617 5.57-5.063.3.297-.364 1.933-1.075 4.923l-1.147.043m-7.414 15.69c.014 2.366-1.678 4.787-3.217 4.787-.766 0-1.394-.471-1.738-1.168-.984-1.996.645-5.488 2.29-8.407 2.151 1.707 2.654 2.988 2.665 4.788m62.793-11.483A485.408 485.408 0 0 0 80.7 28.67a.387.387 0 0 0-.428.28c-.121.436-.244 1.202.214 1.63.213 2.935-.76 7.312-1.436 7.312-.938 0-.675-6.031-.585-7.48.61-.793 1.366-3.646 1.034-5.11-.237-1.046-1.477-.936-1.989-.488-1.123.981-1.62 2.84-.82 5.9-.051.116-1.215 2.024-2.552 3.569-1.215-1.121-3.172-1.269-4.429-.707 2.347-4.569 4.676-9.797 5.515-12.048.293-.784-1.64-1.732-2.03-.652-.988 2.733-4.88 12.74-7.394 16.928l-1.214-.599c0-1.903.115-4.667.427-6.643 1.069-3.517 3.526-10.573 2.296-11.834-1.295-1.328-2.888-.27-2.965 2.892-.047 1.877-.88 8.364-.898 8.502-.275.806-.839 1.905-2.055 2.977-1.02.9-2.037 1.535-2.846 1.88-.18.077-.23.287-.092.439.675.737 1.46 2.065 1.951 3.265.553 1.349.736 2.535-.022 2.535-.99 0-2.043-2.729-2.465-6.022.949-1.92 2.035-4.191 2.948-6.36 1.012-2.402 3.554-10.948.086-10.948-2.773 0-4.86 5.703-4.574 14.499.04 1.226.114 2.327.219 3.315-.162.742-1.618 3.427-2.86 3.427-.389 0-.783-.443-.987-.914.27-.336.463-.6.55-.742 2.544-4.197 2.258-7.244 2.043-7.805-.129-.338-.583-1.495-2.045-1.38-1.47.117-2.914 2.539-2.78 7.376.03 1.124.194 2.041.437 2.779-1.308 1.381-3.226 2.962-3.777 2.417-.85-.839 2.223-3.577 1.521-5.697-.53-1.6-1.79-2.98-2.378-3.564a11.61 11.61 0 0 0-.123-.759c-.124-.629-.458-2.297-1.91-2.126-1.679.198-1.055 2.55.6 3.783 0 0 .79 2.582-.909 5.711-.223.412-1.833 2.31-2.63 1.523-1.083-1.07-.594-6.12.418-11.43 4.044-.503 7.892-1.12 10.073-1.799.555-.173.567-1.276-.618-1.03-3.167.657-5.722.877-9.094 1.033.165-.788.339-1.572.519-2.34.436-1.865.735-3.446.145-3.963-1.848-1.62-5.358 1.606-8.891 6.223l-.248.325h-.005c-3.314.012-4.882-.12-5.869-.12-2.399 0-2.548 3.01-.969 3.01.602 0 2.484-.115 4.99-.32-.654.946-2.878 4.543-3.339 5.28-1.514-1.024-3.15-1.966-4.576-2.973-4.763-3.362-8.777-6.483-8.777-11.798 0-4.176 2.926-11.511 12.671-11.511 9.758 0 11.805 4.18 12.548 5.263.753 1.097 2.713-.14 2.144-1.037C42.312 12.298 39.376 6 27.982 6 21.038 6 13 10.632 13 20.118c0 6.522 4.379 9.665 9.556 13.029 2.017 1.31 3.598 2.344 4.835 3.21-2.494 4.231-4.304 8.531-1.991 11.29.82.977 2.091 1.471 3.096 1.329 3.54-.501 5.061-4.319 4.984-7.231-.068-2.57-1.48-4.427-3.458-6.005.82-1.399 3.43-5.897 3.922-6.605 1.816-.165 3.822-.365 5.839-.596a49.887 49.887 0 0 0-.796 5.934c-.096 1.305-.37 5.106 1.19 6.648 1.116 1.103 2.735.34 4.274-1.774 1.11-1.526 1.786-3.369 1.93-5.423.497.728.733 1.484.679 2.085-.141 1.56-3.167 4.42-1.216 6.348 1.301 1.286 3.89-.854 5.66-2.721.487.771 1.302 1.241 1.974 1.241 1.876 0 3.03-2.783 3.345-3.492.635 3.787 1.871 5.372 3.54 5.372 1.111 0 2.705-1.164 1.343-4.482a8.866 8.866 0 0 0-1.99-2.93c.84-.485 2.178-1.114 3.37-2.407-.178 3.796-.226 8.762 1.138 8.762.46 0 1.19-.81 2.065-2.11 5.165 3.011 17.185 9.107 18.73 8.872 1.522-.232 1.093-1.678 1.093-1.678s-8.894-3.508-12.054-4.974c-1.676-.777-4.782-2.295-7.02-3.395.369-.603.753-1.266 1.146-1.974.475 1.69 3.991 2.682 6.327.093.6-.799.175-1.649.175-1.649s1.597-1.533 1.931-2.14c-.01 2.141.454 6.594 2.326 6.594 2.031 0 3.152-6.022 3.152-8.614 2.442.296 7.265.97 11.798 1.809 8.38 1.552 12.347 2.352 11.996 3.007-.234.437-1.8.405-4.077.405-.916 0-.558 1.252-.118 1.357 1.137.274 5.873.498 6.282-1.492.317-1.544-2.395-3.037-13.537-4.974"/>
    </g>
</svg>
