<svg viewBox="0 0 32 32" fill="none" xmlns="http://www.w3.org/2000/svg">
<path fill-rule="evenodd" clip-rule="evenodd" d="M31.1019 5.51413C31.4949 6.52485 31.7693 7.69128 31.8441 9.38791C31.9189 11.0909 31.9252 11.6335 31.9252 15.9688C31.9252 20.3041 31.9064 20.8467 31.8316 22.5497C31.7568 24.2463 31.4822 25.4067 31.0894 26.4235C30.2597 28.5692 28.5631 30.2658 26.4172 31.0955C25.4067 31.4885 24.2403 31.7629 22.5436 31.8377C20.8406 31.9128 20.298 31.9313 15.9627 31.9313C11.6274 31.9313 11.0846 31.9128 9.38182 31.8377C7.68494 31.7629 6.52485 31.4885 5.50804 31.0955C4.44761 30.6964 3.48075 30.0663 2.68226 29.2554C1.87135 28.4569 1.24147 27.4963 0.836014 26.4235C0.442982 25.4128 0.168372 24.2463 0.0935673 22.5497C0.0187622 20.8467 0 20.3041 0 15.9688C0 11.6335 0.0187622 11.0909 0.0999025 9.38158C0.174708 7.68494 0.449074 6.52485 0.842105 5.50804C1.24147 4.44761 1.87135 3.48075 2.68226 2.68226C3.48075 1.86501 4.44128 1.24123 5.51438 0.83577C6.52485 0.442982 7.69128 0.168372 9.38791 0.0935673C11.0909 0.0187622 11.6335 0 15.9688 0C20.3041 0 20.8467 0.0187622 22.556 0.0999025C24.2527 0.174708 25.413 0.449074 26.4296 0.842105C27.49 1.24123 28.4569 1.87135 29.2554 2.68226C30.0726 3.48075 30.6964 4.44128 31.1019 5.51413ZM28.4196 25.3879C28.6379 24.8265 28.8999 23.9844 28.9686 22.425C29.0434 20.7407 29.0621 20.2417 29.0621 15.9812C29.0621 11.7208 29.0434 11.2156 28.9686 9.53143C28.8999 7.97807 28.6379 7.12987 28.4196 6.56847C28.1637 5.87597 27.7583 5.25219 27.2281 4.73441C26.7166 4.20419 26.0865 3.79873 25.3942 3.54313C24.8328 3.32481 23.9907 3.06287 22.4313 2.99415C20.7532 2.91935 20.2481 2.90058 15.9812 2.90058C11.721 2.90058 11.2156 2.91935 9.53143 2.99415C7.97831 3.06287 7.12987 3.32481 6.56847 3.54313C5.87597 3.79873 5.25219 4.20419 4.73465 4.73441C4.1981 5.2461 3.79264 5.87597 3.53679 6.56847C3.31847 7.12987 3.05653 7.97198 2.98806 9.53143C2.91301 11.2093 2.89449 11.7208 2.89449 15.9812C2.89449 20.2417 2.91301 20.7471 2.98806 22.4313C3.05653 23.9844 3.31847 24.8328 3.53679 25.3942C3.79264 26.0865 4.1981 26.7103 4.72831 27.2281C5.23977 27.7583 5.86988 28.1637 6.56213 28.4196C7.12354 28.6379 7.96564 28.8999 9.5251 28.9683C11.2032 29.0434 11.7147 29.0619 15.9751 29.0619C20.2356 29.0619 20.7407 29.0434 22.425 28.9683C23.9783 28.8999 24.8265 28.6379 25.3879 28.4196C26.779 27.883 27.883 26.779 28.4196 25.3879Z" fill="black"/>
<path fill-rule="evenodd" clip-rule="evenodd" d="M7.76611 15.9688C7.76611 11.44 11.4403 7.76605 15.9688 7.76605C20.4976 7.76605 24.1716 11.44 24.1716 15.9688C24.1716 20.4975 20.4976 24.1715 15.9688 24.1715C11.4403 24.1715 7.76611 20.4975 7.76611 15.9688ZM10.6479 15.9688C10.6479 18.9069 13.031 21.2897 15.9688 21.2897C18.907 21.2897 21.2897 18.9069 21.2897 15.9688C21.2897 13.0307 18.907 10.6479 15.9688 10.6479C13.031 10.6479 10.6479 13.0307 10.6479 15.9688Z" fill="black"/>
<path d="M26.4112 7.44176C26.4112 8.49926 25.5538 9.35672 24.496 9.35672C23.4385 9.35672 22.5811 8.49926 22.5811 7.44176C22.5811 6.38401 23.4385 5.52679 24.496 5.52679C25.5538 5.52679 26.4112 6.38401 26.4112 7.44176V7.44176Z" fill="black"/>
</svg>
