<svg width="31" height="24" viewBox="0 0 31 24"  xmlns="http://www.w3.org/2000/svg">
<path  clip-rule="evenodd" d="M10.0421 5.27979H28.2414C28.9646 5.27979 29.5781 5.98026 29.6025 6.74058L28.2439 16.014C28.0248 16.7634 27.6105 17.5998 26.8681 17.5998H11.7589C11.2422 17.5998 10.8296 17.3903 10.3772 16.0224L8.6814 6.76311C8.68454 6.69025 8.69712 6.63639 8.71039 6.56669C8.71493 6.54417 8.71808 6.46356 8.72052 6.44033C8.86935 5.81658 9.41399 5.27979 10.0421 5.27979ZM25.0864 22.5924C24.1557 22.5924 23.3987 21.8296 23.3987 20.8919C23.3987 19.9542 24.1557 19.1914 25.0864 19.1914C26.0174 19.1914 26.7745 19.9542 26.7745 20.8919C26.7745 21.8296 26.0174 22.5924 25.0864 22.5924ZM13.5581 22.5924C12.6274 22.5924 11.8704 21.8296 11.8704 20.8919C11.8704 19.9542 12.6274 19.1914 13.5581 19.1914C14.4888 19.1914 15.2458 19.9542 15.2458 20.8919C15.2458 21.8296 14.4888 22.5924 13.5581 22.5924ZM0 0.703998C0 1.09261 0.313022 1.408 0.69871 1.408H6.07912L7.31304 6.4004C7.29523 6.52747 7.283 6.68974 7.283 6.82104C7.283 6.86363 7.28684 6.92312 7.29453 6.96501L9.01126 16.3838C9.01685 16.4151 9.02453 16.45 9.03432 16.4802C9.25895 17.1691 9.74595 18.6595 11.0801 19.0453C10.7 19.5623 10.4723 20.2002 10.4723 20.8911C10.4723 22.605 11.8564 24 13.5574 24C15.2584 24 16.6426 22.5389 16.6426 20.825C16.6426 20.1759 16.4438 19.7119 16.1049 19.0079H22.5383C22.1998 19.7119 22.0006 20.1762 22.0006 20.8253C22.0006 22.5389 23.3851 23.9669 25.0861 23.9669C26.7871 23.9669 28.1713 22.5892 28.1713 20.8753C28.1713 20.1794 27.94 19.5469 27.555 19.028C28.2628 18.8077 29.1114 18.1705 29.5991 16.4545C29.6078 16.4243 29.6141 16.3961 29.619 16.3648L30.9927 6.95585C30.9976 6.92171 31 6.82139 31 6.78689C31 5.24303 29.7367 3.87199 28.2411 3.87199H10.0422C9.38961 3.87199 8.78103 4.18738 8.30277 4.5964L7.30117 0.56531C7.22256 0.252383 6.94378 0 6.62377 0H0.69871C0.313022 0 0 0.315391 0 0.703998Z" />
</svg>
