<svg width="142" height="52" xmlns="http://www.w3.org/2000/svg"><g fill="none" fill-rule="evenodd"><path d="M42.7 18.6h-.1-.2l-.1-.1L42 15l3.7-.6v.1l.1.1-3.1 4zm-6.2-3.2v-.1-.1h-.1V15h-.1V15l-.1-.1H36v-.1H36l-.1-.1h-.1l.2-4.4 4 .5v.1h.1v.2a1.5 1.5 0 0 0 0 .1h.1a1 1 0 0 0 0 .2 1.1 1.1 0 0 0 .1 0v.1h.1v.1h.1v.1h.1l.1.1h.2l.1.1h.1l.3 2.7-4.9.8zm-.4-7.5l4 2.4-4-.6V8zm-.5-.9l-3.1-1.9 2.4-.1v.1l.1.1v.1h.1v.1a1.2 1.2 0 0 0 .1.1h.1v.1h.2v.1h.2V7zm-.1 2.7L32 9.2a1 1 0 0 0 0-.1V9v-.1l-.1-.1v-.1a1.2 1.2 0 0 0-.3-.3A1.2 1.2 0 0 0 31 8a1.2 1.2 0 0 0-.3 0H30.3l-.1.1h-.1l-.1.1a1.2 1.2 0 0 0-.2.2 1.1 1.1 0 0 0-.3.5v.1a1 1 0 0 0 0 .2v.4l.1.1v.1l.1.1-1.6 2-1.6-.7V11 11v-.1-.2-.1l-.1-.1v-.2h-.1a1.2 1.2 0 0 0-.5-.4H25.5h-.2-.1-.1-.2-.1-.1v.1h-.1a1.2 1.2 0 0 0-.4.5v.2l-.1.1v.6l-1 .8L20 6.7v-.1l.1-.1v-.1h.1v-.1-.1l.1-.1V6l11.2-.8 4 2.4v2zm-.3 5H35 35h-.2v.1h-.1l-.1.1h-.1v.1l-5.8-2.7 1.5-2a1.4 1.4 0 0 0 .4.2 1 1 0 0 0 .3 0H31.2v-.1h.2v-.1h.1a1.2 1.2 0 0 0 .2-.2 1.2 1.2 0 0 0 .2-.4l3.5.5-.2 4.4zm-9.5.3h-.1-.1H25.1 24.8h-.1l-1.3-2.3 1-.8h.1l.3.2H25.3v.1h.7V12h.1l.1-.1.2-.2 1.5.7-2.1 2.5zm-12.5 4.2V19H13L13 19l1.3-6.2h.5v-.1h.2v-.1h.1v-.1h.1v-.1h.1v-.1a1.2 1.2 0 0 0 .2-.3v-.1-.1-.1-.1-.1-.1-.1-.1-.1h-.1V11l-.1-.1 3.3-4H19.5l3.4 5.6-9.6 6.7zm-.8-.3h-.1-.2-.1-.1v.1h-.1l-.1.1h-.1v.1l-.1.1v.1h-.1v.1h-.1V20.7L7 24.5l-2.2-2.7.1-.1v-.1l.1-.2v-.1-.1-.1-.1-.1-.1-.1-.1-.1h-.1v-.1l-.1-.1h-.1v-.1l3.7-7 4.8-1h.1v.1l.1.1.1.1h.1v.1h.1a1.3 1.3 0 0 0 .1.1L12.4 19zm.3 14h.1l1.5 5-3.6-1.6a1.3 1.3 0 0 0 0-.4v-.1a1.3 1.3 0 0 0 0-.1v-.1l-.1-.1v-.1h-.1a1 1 0 0 0 0-.2h-.1a1.1 1.1 0 0 0-.3-.2 1.3 1.3 0 0 0-.4-.1 1.2 1.2 0 0 0-.1 0h-.1a1.2 1.2 0 0 0-.2 0 1.5 1.5 0 0 0-.3.1h-.1v.1h-.1l-.1.1v.1h-.1a1.2 1.2 0 0 0-.1.3 1.2 1.2 0 0 0-.2.6v.1a1.2 1.2 0 0 0 .1.3h.1v.1l.1.1v.1h.1v.1h.1a1.2 1.2 0 0 0 .2.2 1.2 1.2 0 0 0 .5 0l.9 4h-.1-.1l-.1.1-4.7-2.7v-.1-.2-.1-.1-.1-.1-.1-.1l-.1-.2h-.1v-.1H5v-.1H5v-.1h-.1-.1l-.1-.1h-.1l-.2-6.3 7.2 1v.5h.1v.1h.1v.1l.1.1h.1a.8.8 0 0 0 0 .1h.1v.1h.2v.1H12.7a1 1 0 0 0 .1 0zm2.8 9.4l-3.4-.3v-.1-.1-.1H12v-.1l-.1-.1-.1-.1-.1-.1h-.1v-.1h-.1l-.1-.1h-.2-.1L11 41l-1-3.8h.1l.1-.1h.1V37h.1v-.1h.1l4 1.7 1 3.7zm5.6-.7l-1 1-4-.3-1-3.4 6 2.7zm.6.2l2.2 1-3.1-.2.9-.8zm3.8-3.3a1.2 1.2 0 0 0 .2.2H26.8l.1-.1h.1v-.1l.1-.1a1.3 1.3 0 0 0 .2-.2l3.8 1-4.8 3.2v-.1H26v-.1h-.2l-.1-.1h-.1-.4-.1-.1-.1a1 1 0 0 0-.2.1h-.1v.1h-.1v.1h-.1v.1l-2.4-1 3.4-3zm6.2 1l8.3 2.3-13.4 1 5.1-3.4zm6.9-4.6h.1v.1h.1l.1.1h.2v.1H39.5l1.6 5.6h-.1v.1h-.1v.1h-.1v.1h-.1v.1h-.1v.1L32.3 39l6.3-4.1zm1.4.2h.1V35h.1v-.1h.1l4.6 2.6V38.5L42.3 41H42l-.1-.1h-.2-.2-.1L40 35zm-6.3 10.1v.4L27.2 50H27l-.2-.2h-.1H26.3v-.1h-.1-.4l-.1.1-.3.2h-.1v.1L18 46a1.1 1.1 0 0 0 0-.2 1 1 0 0 0 0-.1v-.1-.1-.2h-.1v-.1l2.3-2 4 .2V43.8a1.3 1.3 0 0 0 .2.2v.1h.1v.1h.1l.1.1h.1v.1h.2l.1.1h.6a1 1 0 0 0 .1 0h.1a1 1 0 0 0 .1-.1h.1v-.1a1.3 1.3 0 0 0 .1 0V44a.7.7 0 0 0 .1 0V44a.9.9 0 0 0 .1 0v-.1-.1h.1l7.2 1.4zm-16.2-.4a1.3 1.3 0 0 0-.1 0v-.1a1.3 1.3 0 0 0-.1 0h-.1a1.2 1.2 0 0 0-.1-.1 1.4 1.4 0 0 0-.3 0l-.6-1.8 3.3.3-2 1.7zm-10.1-20l4.3-3.8h.1v.1h.2v.1a1 1 0 0 0 .1 0l.4 9.4h-.1-.1l-5-5.7zm-3.1 2.9L7 25.2l4.8 5.8v.1l-.1.1v.1l-7.4-1v-2.6zM4 22.2h.2l2.3 2.6L4.3 27 4 22.2zm0-2.3L3.9 15h.2V15h.1l.1-.1h.1v-.1h.1v-.1l.1-.1.1-.1v-.1-.1h.1v-.1-.1-.1l2.9-.7L4.2 20zm7-12H11.5l.1.1H11.8a1.2 1.2 0 0 0 .7-.5v-.1-.1h.1v-.1V7 7v-.1l5.4-.7v.1l.1.1v.1l-3.2 4a1 1 0 0 0-.2 0h-.2-.1a1.2 1.2 0 0 0-.2 0H14 14h-.2l-.1.1h-.1v.1h-.1v.1h-.1v.1l-.1.1a1.2 1.2 0 0 0-.1.3V11.7l-4.5 1L11.2 8zm13.5-5.8l.2.1.2.1.3.1h.2l.5-.1.1-.1.1-.1 4.5 2.6-10.4.7v-.1L24.5 2zM2.4 30v-.1-.1-.1l-.1-.1L3.8 28v2L2.4 30zM48 14a1 1 0 0 0 0-.1v-.1-.1-.1h-.1v-.1-.1h-.1v-.1h-.1a1.2 1.2 0 0 0-.1-.2 1.2 1.2 0 0 0-.8-.3 1.3 1.3 0 0 0-.2 0 1.1 1.1 0 0 0-.2.1h-.1l-.1.1H46a1.3 1.3 0 0 0-.2.2v.1a1.3 1.3 0 0 0-.2.3 1 1 0 0 0-.1.2 1.2 1.2 0 0 0 0 .2l-3.7.5-.2-2.6h.1a1 1 0 0 0 .1-.1l.1-.1h.1v-.1h.1v-.1l.1-.1v-.1h.1v-.1-.1-.1l.1-.1v-.1-.1-.1-.1-.1a1.2 1.2 0 0 0-.1-.1.7.7 0 0 0 0-.2 1.3 1.3 0 0 0-.1 0V10h-.1v-.1H42v-.1H42l-.1-.1h-.1-.1v-.1h-.2-.1-.1-.2-.2a1 1 0 0 0-.2.1h-.1v.1h-.1v.1l-4.3-2.6V5.8H36.6v-.1h.1l.1-.1h.1v-.1a1 1 0 0 0 .1 0v-.1h.1v-.1l.1-.1V5l.1-.1v-.1-.1-.1-.1-.1-.1-.1-.1V4H37V4v-.1H37v-.1h-.1v-.1h-.1l-.1-.1h-.1l-.1-.1h-.1H36 35.7h-.4v.1a1.2 1.2 0 0 0-.2.1v.1H35V4H35v.2l-.1.1v.2l-3.2.2-5.1-3v-.3-.1l-.1-.5V.6l-.1-.1-.1-.1-.1-.1-.2-.1-.2-.1-.3-.1h-.1l-.5.1h-.1l-.1.1-.1.1h-.1v.1l-.1.2h-.1v.2l-.1.4v.5L20 4.9v-.1h-.1l-.1-.1h-.1-.1l-.1-.1h-.2-.1-.2-.1-.1l-.1.1h-.1v.1h-.1V5h-.1V5h-.1v.1H18v.2H18V5.7l-5.4.8a1.2 1.2 0 0 0-.3-.5 1.2 1.2 0 0 0-.2-.1l-.1-.1h-.1-.1-.1l-.1-.1H11a1.3 1.3 0 0 0-.4.2 1.4 1.4 0 0 0-.2.3v.1h-.1v.2h-.1v.7a1.2 1.2 0 0 0 .4.6l-2.7 5-3.3.7v-.1l-.1-.1V13h-.1l-.1-.1-.1-.1h-.1l-.1-.1h-.2-.1-.1-.1-.1-.1-.1-.1H3L3 13h-.1v.1h-.1v.1h-.1v.1l-.1.1v.1l-.1.1v1h.1v.1l.1.1h.1v.1H3v.1H3l.2.1h.2l.1 5H3.1v.1H3l-.1.1v.1h-.1v.1h-.1v.2h-.1V21.7h.1v.1l.1.1v.1H3v.1h.2v.1h.2v.1h.2l.1 5.2L2 29.1V29h-.1-.1v-.1H1.3h-.1-.1H1 .7.7l-.1.1H.5l-.1.1v.1H.2v.1l-.1.1v.1H0V29.9L0 30v.4l.1.1v.1l.1.1.1.1.1.1.1.1h.1v.1H1l.1.1h.7V31h.1L2 31a1.2 1.2 0 0 0 .1 0v-.1h.1v-.1l.1-.1v-.1h.1v-.1l1.5.2L4 37h-.1l-.1.1h-.1l-.1.1h-.1v.1h-.1v.1l-.1.1v.1h-.1v.2a1.1 1.1 0 0 0-.1.2v.7l.1.1v.1h.1v.1h.1v.1h.1l.1.1h.1v.1H4a1.4 1.4 0 0 0 .1.1h.5l.2-.1H5v-.1H5l.1-.1 4.7 2.7v.1l-.1.1v.6l.1.1v.1l.1.1.1.1.1.1h.1v.1h.1l.1.1H10.8l.1.1h.5l.1-.1h.1l.1-.1h.1V43l.1-.1v-.1h.1v-.1l.1-.1v-.1l3.7.2.5 2H16 16v.1h-.1v.1h-.1v.2h-.1v.1a1.1 1.1 0 0 0-.1.3 1.2 1.2 0 0 0 0 .1 1.3 1.3 0 0 0 0 .2 2.3 2.3 0 0 0 0 .2v.1h.1v.2h.1v.1h.1v.1h.1v.1h.1v.1h.1a1.1 1.1 0 0 0 .1 0 1.3 1.3 0 0 0 .2.1 1.2 1.2 0 0 0 .1 0 1.2 1.2 0 0 0 .1 0 1 1 0 0 0 .2 0h.2a.7.7 0 0 0 .1 0h.1l.1-.1h.1v-.1h.1v-.1h.1l7.4 3.9v.8h.1l.1.3h.1l.1.1h.1l.2.2H26.2l.1.1h.5l.1-.1.3-.2.1-.1v-.1l.2-.2v-.1-.1-.1h.1v-.1-.2-.1-.1-.1L34 46l.1.1h.1l.1.1h.2l.2.1H35.5v-.1h.2v-.1l.1-.1.1-.1.1-.1v-.1l.1-.1v-.1-.1l.1-.2V45 45v-.1-.1l-.1-.1v-.2h-.1-.1v-.1l-.1-.1h-.1v-.1h-.1l-.1-.1h-.1-.1-.2V44h-.2-.4v.1a1.2 1.2 0 0 0-.2.1l-.1.1H34v.1l-.1.1v.1l-.1.1-6.5-1.3 13-1.1h.1v.2h.1v.1l.1.1h.1v.1h.1a.8.8 0 0 0 0 .1h.1l.1.1H41.4v.1h.4a.9.9 0 0 0 .1 0h.1a.9.9 0 0 0 .1-.1 1.1 1.1 0 0 0 .1 0l.1-.1h.1v-.1h.1v-.1h.1v-.1-.1h.1v-.1-.1h.1v-.1-.1-.1-.1-.1-.1-.1-.1-.1h-.1l2.7-2.6.3.2h1v-.1l.3-.3h.1l.2-.4V38 38v-.1-.1-.1-.1-.1-.1-.1H47c0-.2-.2-.3-.3-.4l-.4-.2H46h-.1-.1-.1-.2l-.1.1-.3.2-4.5-2.6v-.1-.1-.1-.1-.1a1.2 1.2 0 0 0 0-.1v-.2-.1h-.1v-.1-.1h-.1v-.1h-.1l-.1-.1H40V33H40h-.1v-.1h-.1-.2-.2-.1a1.2 1.2 0 0 0-.1 0H39h-.2v.1h-.2v.1h-.1v.1l-.1.1v.1h-.1v.2h-.1V34.5l-6.7 4.4-4.2-1.2v-.1-.1-.2h-.1V37 37h-.1v-.1l-.1-.1-.1-.1a1.2 1.2 0 0 0-.4-.2h-.1v-.1H26.1 26h-.1-.1-.1l-.1.1h-.1v.1h-.1v.1h-.1l-.1.1a1.1 1.1 0 0 0-.1.2v.1l-.1.1V38.2h.1l-3.5 3.1-6.7-3-1.5-5.4h.1v-.1h.1v-.1h.1a1.1 1.1 0 0 0 0-.1h.1v-.1-.1h.1v-.1-.1-.1a1.5 1.5 0 0 0 0-.2v-.1-.1-.1-.1-.1-.1l-.1-.1V31h-.1v-.1h-.1l-.1-.1h-.1v-.1h-.2-.1v-.1l-.4-9.4h.2l.1-.1h.1V21h.1v-.1h.1v-.1h.1v-.1l.1-.1v-.1a1.3 1.3 0 0 0 .1-.2v-.1-.1-.1-.1-.1-.1a1.1 1.1 0 0 0 0-.1L23 13l1.3 2.2v.1h-.1v.1l-.1.1v.1l-.1.1V16.8h.1v.1a1.2 1.2 0 0 0 .2.1v.1l.2.1h.1v.1h.2l.1.1h.7v-.1h.1a1.2 1.2 0 0 0 .3-.2v-.1h.1v-.1h.1v-.1-.2h.1v-.1-.1-.1-.1-.1-.1-.1-.1-.1h-.1v-.1a1.2 1.2 0 0 0 0-.1H26l2.2-2.7 6 2.8h-.1V16.4h.1v.1l.1.1v.1h.1v.1h.1l.1.1h.1l.1.1H35.3v.1h.6l.1-.1h.1v-.1h.1l.1-.1.1-.1.1-.1v-.1l.1-.1v-.1-.1-.1h.1v-.1l4.8-.8.3 3.4-.1.1h-.1v.1h-.2v.1l-.1.1v.1H41v.1l-.1.1V19.6l-.1.1v.5l.1.1.1.1.1.2.1.1h.1v.1h.2l.1.1H42.8v-.1h.1l.1-.1.1-.1.1-.1v-.1l.1-.1V20 20h.1v-.1-.1-.1-.1-.1-.1-.1-.1h-.1V19L43 19l3.1-3.9a1.1 1.1 0 0 0 .2 0 1.2 1.2 0 0 0 .5.1h.4V15h.1l.1-.1a1.3 1.3 0 0 0 .2-.2 1.2 1.2 0 0 0 .3-.8z" fill="#000"/><path d="M104.9 28c0 .6-.5 1-1 1H102c-.5 0-1-.4-1-1v-4c0-.6.5-1 1-1h1.8c.5 0 1 .4 1 1v4zm-1-6H102c-1.1 0-2.1.9-2.1 2v4c0 1.1 1 2 2.1 2h1.8c1.1 0 2.1-.9 2.1-2v-4c0-1.1-1-2-2.1-2zM121.9 28c0 .6-.5 1-1 1H119c-.5 0-1-.4-1-1v-4c0-.6.5-1 1-1h1.8c.5 0 1 .4 1 1v4zm-1-6H119c-1.1 0-2.1.9-2.1 2v4c0 1.1 1 2 2.1 2h1.8c1.1 0 2.1-.9 2.1-2v-4c0-1.1-1-2-2.1-2zM131 29H129a1 1 0 0 1-1-1v-4c0-.6.5-1 1-1h3v-1h-3a2 2 0 0 0-1.9 2v4c0 1.1.8 2 1.9 2h3.1v-4.2h-1V29M87 25c0 .5-.4.9-.9.9H84V23H86c.5 0 1 .4 1 1v1zm-.9-3H83v8h1v-3.1H86a2 2 0 0 0 1.9-2v-1c0-1-.8-1.9-1.9-1.9zM64 23h2.4c.5 0 1 .4 1 1v.6c0 .5-.5 1-1 1H64V23zm4.4 1.6V24c0-1-1-1.9-2-1.9H63v8h1v-3.5H66l1.9 3.5H69l-2-3.6a2 2 0 0 0 1.4-1.8zM76.9 22L75 25.6 73.1 22H72l2.5 4.8V30h1v-3.2L78 22h-1.1M142 22h-1.1l-1.9 3.6-1.9-3.6H136l2.5 4.8V30h1v-3.2L142 22M91 23h2.5v7h1v-7H97v-1h-6v1M110.9 22h-.9v8h4v-1h-3.1v-7M55 28v-4c0-.6.4-1 1-1h3v-1h-3c-1.1 0-2 .9-2 2v4c0 1.1.9 2 2 2h3v-1h-3a1 1 0 0 1-1-1" fill="#1A1919"/></g></svg>