<svg width="191" height="46" viewBox="0 0 191 46" fill="none" xmlns="http://www.w3.org/2000/svg">
<g id="Logos/proved">
<g id="Group">
<g id="Group 3">
<path id="Rectangle" d="M8.44706 19.2H20.7282L12.2811 39H0L8.44706 19.2Z" fill="black"/>
<path id="Rectangle Copy" d="M28.4272 9H40.8641L28.4272 39H15.9903L28.4272 9Z" fill="black"/>
<path id="Rectangle Copy 2" d="M48.4728 0H61L45.1 39H32.5728L48.4728 0Z" fill="black"/>
</g>
<path id="proved." fill-rule="evenodd" clip-rule="evenodd" d="M181.635 38.8649H177.629V36.3055C176.218 38.1669 174.12 39.3302 171.716 39.3302C167.024 39.3302 163.553 35.6851 163.553 29.4806C163.553 23.4313 166.986 19.6698 171.716 19.6698C174.043 19.6698 176.18 20.7168 177.629 22.7333V13H181.635V38.8649ZM76.9185 39.3302C74.5914 39.3302 72.5315 38.2444 71.0055 36.2667V46H67V20.1351H71.0055V22.6945C72.3789 20.8331 74.5152 19.6698 76.9185 19.6698C81.687 19.6698 85.0821 23.3149 85.0821 29.4806C85.0821 35.6463 81.687 39.3302 76.9185 39.3302ZM186.828 34.6235H191V38.8649H186.828V34.6235ZM80.9622 29.4806C80.9622 33.1257 78.9022 35.7239 75.7359 35.7239C73.8666 35.7239 71.8829 34.5605 71.0055 33.1645V25.7579C71.9211 24.3619 73.8666 23.2761 75.7359 23.2761C78.9022 23.2761 80.9622 25.8355 80.9622 29.4806ZM93.0932 38.8649H89.0877V20.1351H93.0932V22.8496C94.5047 21.0658 96.7173 19.6698 99.0825 19.6698V23.7027C98.7391 23.6251 98.3576 23.5864 97.8617 23.5864C96.1451 23.5864 93.8943 24.7497 93.0932 26.1069V38.8649ZM101.219 29.4806C101.219 34.832 104.805 39.3302 110.679 39.3302C116.554 39.3302 120.14 34.832 120.14 29.4806C120.14 24.0905 116.554 19.6698 110.679 19.6698C104.805 19.6698 101.219 24.0905 101.219 29.4806ZM110.679 35.7239C114.113 35.7239 115.982 32.8155 115.982 29.4806C115.982 26.1845 114.113 23.2761 110.679 23.2761C107.284 23.2761 105.377 26.1845 105.377 29.4806C105.377 32.8155 107.284 35.7239 110.679 35.7239ZM129.067 38.8649H133.377L140.893 20.1351H136.62L131.241 34.1727L125.862 20.1351H121.552L129.067 38.8649ZM151.956 39.3302C146.386 39.3302 142.304 35.4136 142.304 29.4806C142.304 24.0517 146.195 19.6698 151.65 19.6698C157.182 19.6698 160.691 23.9354 160.691 29.8296V30.8378H146.5C146.806 33.6298 148.866 35.9953 152.337 35.9953C154.168 35.9953 156.266 35.2585 157.601 33.9013L159.433 36.577C157.563 38.3608 154.855 39.3302 151.956 39.3302ZM151.612 23.0047C155.236 23.0047 156.724 25.7192 156.838 27.9295H146.462C146.615 25.6804 148.217 23.0047 151.612 23.0047ZM177.629 33.2033C176.752 34.5993 174.768 35.7239 172.899 35.7239C169.694 35.7239 167.673 33.1257 167.673 29.4806C167.673 25.8743 169.694 23.2761 172.899 23.2761C174.768 23.2761 176.752 24.4007 177.629 25.7967V33.2033Z" fill="black"/>
</g>
</g>
</svg>
