<svg xmlns="http://www.w3.org/2000/svg" width="200" height="47" viewBox="0 0 200 47">
    <g fill="#000" fill-rule="evenodd">
        <path d="M0 17.5h9.018v1.187H1.596v3.682h6.1v1.152h-6.1v4.339h8.038v1.187H0zM28.91 23.203L23.244 17.5h1.833s3.994 4.032 4.873 4.85c.884-.818 4.86-4.85 4.86-4.85h1.846l-5.7 5.703 5.893 5.843h-1.905l-4.994-4.955-4.992 4.955h-1.901l5.855-5.843zM56.123 17.5l.01.037.015-.037h1.905l5.794 11.547h-1.633l-1.51-3.004h-7.357l-1.459 3.004h-1.61L56.123 17.5zm4.075 7.512l-3.166-6.357-3.156 6.357h6.322zM78.333 17.516l1.287-.016 9.411 9.663c-.015-.04 0-.092 0-.252v-9.395h1.398v11.547h-1.36l-9.36-9.52c0 .034.017.14.017.338v9.181h-1.393V17.517zM104.722 17.5h11.528v1.174h-4.974v10.373h-1.593V18.674h-4.96zM130.278 17.5h9.026v1.187h-7.428v3.682h6.098v1.152h-6.098v4.339h8.033v1.187h-9.631zM180 37.578l20-2.89-20 11.562-20-11.563V11.564L180 0l-15 14.453-3.75-2.168v17.344L165 14.453l5 2.89-10 17.345.002-.002 19.992-11.557L170 17.344 179.996.005v23.122l.004-.002v14.453l-16.67-2.41L180 44.807v-7.228zm18.75-25.293l-8.75 5.06L180 0l20 11.563v23.124l-20-11.562 10-5.78 8.75 15.175V12.285z"/>
    </g>
</svg>
