<svg width="168" height="58" viewBox="0 0 168 58" fill="none" xmlns="http://www.w3.org/2000/svg">
<path d="M102.216 50C92.4874 50 85 42.0014 85 32.6375V32.5C85 23.1245 92.2154 15 102.216 15H113.419L111.04 18.0167H102.154C93.4672 18.0167 88.5053 24.3705 88.5053 32.3691V32.5C88.5053 40.559 94.6763 46.9828 102.422 46.9828C107.188 46.9828 110.899 44.5633 113.751 41.4092L116 43.3783C112.555 47.2512 108.447 50 102.216 50Z" fill="black"/>
<path d="M133.924 3.00179C129.238 3.00179 127.035 5.81573 127.035 11.6315V14.9095H135.548L133.174 17.9207H127.035V49H123.758V17.9207H117L118.811 14.9095H123.758V11.5607C123.759 4.21179 127.503 0 133.924 0H139V3.00179H133.924Z" fill="black"/>
<path fill-rule="evenodd" clip-rule="evenodd" d="M164.714 41.5096V49.1913H168V0H164.714V22.2341C161.896 17.9226 157.472 14.0127 150.63 14.0127C142.383 14.0127 134 20.8205 134 32.0061V32.1442C134 43.3298 142.383 50 150.63 50C157.401 50 161.76 46.0249 164.714 41.5096ZM150.965 17.1802C158.079 17.1802 164.912 23.1091 164.912 31.9398V32.0774C164.912 40.8329 158.079 46.832 150.965 46.832C143.793 46.832 137.551 41.0356 137.551 32.0061V31.8746C137.551 22.6412 143.521 17.1802 150.965 17.1802Z" fill="black"/>
<path d="M82.6957 49.4787L70.6902 34.0381L51.9407 58H48L68.6846 31.7855L55.2776 14.7828H59.3462L70.8236 29.4699L89.0643 6H93L72.821 31.7236L86.7621 49.4787H82.6957Z" fill="black"/>
</svg>
