<svg viewBox="0 0 140 35" fill="none" xmlns="http://www.w3.org/2000/svg">
<path d="M25.6088 24.3588C25.5633 24.4104 25.5119 24.4672 25.4591 24.53C22.9318 27.508 20.4744 28.0328 20.1407 28.1319C20.1137 28.1403 20.0842 28.1331 20.064 28.1133C20.0438 28.0934 20.036 28.064 20.0438 28.0368C20.5939 26.4361 20.9322 24.7701 21.05 23.0813C21.0567 23.0448 21.0327 23.0097 20.9963 23.003C20.9598 22.9962 20.9249 23.0203 20.9181 23.0568C19.7605 26.2067 16.5162 28.0711 13.2194 27.4811C9.92262 26.8911 7.52246 24.0165 7.52388 20.6597C7.41511 17.7058 9.15084 14.9956 11.8757 13.865C8.17467 14.8563 5.19238 18.9282 5.19238 23.113C5.19238 27.325 8.5993 31.4034 11.9423 32.3895C13.9802 32.7743 16.0816 32.6448 18.0572 32.0128C21.655 30.8214 24.4896 28.0113 25.7176 24.4183C25.734 24.3882 25.7229 24.3505 25.6929 24.334C25.6628 24.3176 25.6252 24.3287 25.6088 24.3588Z" fill="black"/>
<path d="M9.92081 12.7606C9.91026 12.7606 9.90169 12.7719 9.89048 12.7745C9.50702 12.8914 9.13019 13.0291 8.76165 13.1869C3.4732 15.4658 0.911243 21.5133 2.94807 26.9099L3.68788 25.8961C4.44524 28.157 5.86054 30.1389 7.75151 31.5865C7.81051 31.2978 7.88894 31.0134 7.98625 30.7353C9.1584 31.5855 10.5108 32.1525 11.9378 32.3921C8.15711 30.8878 5.66963 27.2294 5.65512 23.1523C5.64061 19.0751 8.10198 15.399 11.8719 13.8677C12.9822 13.4022 14.1762 13.1705 15.3797 13.1869C17.224 13.1462 19.0229 13.7623 20.4567 14.9258C16.2803 9.44423 9.93795 12.7547 9.92081 12.7606Z" fill="black"/>
<path fill-rule="evenodd" clip-rule="evenodd" d="M16.465 5.85486C16.1914 4.6003 15.8059 3.37291 15.3131 2.1875C15.3151 2.18782 15.3182 2.18828 15.3223 2.1889C15.6168 2.23358 21.252 3.08825 23.7655 8.21561C25.8543 12.4791 24.98 17.578 23.5564 19.0082C22.8084 17.4614 21.7608 16.0793 20.4746 14.9423L20.4634 14.933C19.9111 14.4391 19.3187 13.9921 18.6923 13.5967C15.0059 11.2604 9.93999 12.76 9.92285 12.7659C5.21443 13.9769 1.72076 17.9463 1.10918 22.78C0.838098 18.1706 2.77737 13.7082 6.32934 10.768C6.29571 10.7389 5.49656 10.0899 5.49656 10.0899C5.49656 10.0899 7.49443 8.08805 11.6194 7.5633C11.2942 7.10212 10.9419 6.66074 10.5644 6.24149C12.4856 5.71788 14.4922 5.5864 16.465 5.85486ZM22.4899 13.0263C22.5642 12.7454 22.6084 12.4574 22.6217 12.1671V12.1645C22.6855 10.5745 21.8183 9.09319 20.4023 8.37355C19.756 9.21944 19.6248 10.3526 20.0608 11.3244C20.4968 12.2961 21.4296 12.9497 22.4899 13.0263Z" fill="black"/>
<path d="M75.1442 15.0493V17.1517H78.1232V25.8597H80.4395V17.1517H83.4191V15.0493H75.1442Z" fill="black"/>
<path d="M61.4218 15.0487L58.4461 19.8786L55.4308 15.0487H52.8732L57.2368 22.0781V25.8611H59.5531V22.0781L63.8647 15.05L61.4218 15.0487Z" fill="black"/>
<path d="M137.113 15.0487L134.137 19.8786L131.122 15.0487H128.566L132.925 22.0781V25.8611H135.242V22.0781L139.554 15.05L137.113 15.0487Z" fill="black"/>
<path d="M99.9628 21.977V15.0487H97.6471V22.1072C97.572 23.1245 97.9431 24.124 98.6633 24.8447C99.3836 25.5654 100.381 25.9355 101.396 25.8585H104.571V23.7568H101.872C100.621 23.7568 99.9628 23.0972 99.9628 21.977Z" fill="black"/>
<path d="M47.8662 18.9309V25.8591H45.5498V18.8C45.4747 17.7827 45.8458 16.7831 46.566 16.0625C47.2863 15.3418 48.2842 14.9716 49.2989 15.0487H52.1283V17.1511H49.7743C48.5235 17.1511 47.8662 17.8106 47.8662 18.9309Z" fill="black"/>
<path fill-rule="evenodd" clip-rule="evenodd" d="M105.605 20.4437C105.605 17.0321 107.972 14.9423 111.106 14.9423C114.239 14.9423 116.605 17.0321 116.606 20.4437C116.606 23.8553 114.24 25.9451 111.106 25.9451C107.971 25.9451 105.605 23.8553 105.605 20.4437ZM111.106 23.8454C112.968 23.8454 114.287 22.4733 114.287 20.4437H114.286C114.286 18.4134 112.965 17.042 111.105 17.042C109.243 17.042 107.924 18.4134 107.924 20.4437C107.924 22.474 109.246 23.8454 111.106 23.8454Z" fill="black"/>
<path fill-rule="evenodd" clip-rule="evenodd" d="M84.629 20.4437C84.629 17.0321 86.9955 14.9423 90.1294 14.9423C93.2627 14.9423 95.6291 17.0321 95.6291 20.4437C95.6291 23.8553 93.2627 25.9451 90.1294 25.9451C86.9948 25.9451 84.629 23.8553 84.629 20.4437ZM90.1297 23.8454C91.9917 23.8454 93.3104 22.4733 93.3104 20.4437H93.3111C93.3111 18.4134 91.9897 17.042 90.1303 17.042C88.2676 17.042 86.9489 18.4134 86.9489 20.4437C86.9489 22.474 88.2696 23.8454 90.1297 23.8454Z" fill="black"/>
<path fill-rule="evenodd" clip-rule="evenodd" d="M69.4064 15.05C72.4289 15.05 73.9771 16.9012 73.9771 19.1218L73.9758 19.1238C73.9758 21.3226 72.4441 23.1943 69.4921 23.1943H67.5081V25.8611H65.1918V15.05H69.4064ZM67.5082 21.092H69.5733C70.3026 21.1353 70.9959 20.7703 71.3742 20.1437C71.7525 19.5172 71.7536 18.7323 71.377 18.1047C71.0004 17.4772 70.308 17.1103 69.5786 17.1517H67.5082V21.092Z" fill="black"/>
<path d="M125.751 21.1581V23.3325C125.176 23.6513 124.534 23.8272 123.878 23.8454C122.018 23.8454 120.697 22.474 120.697 20.4437C120.697 18.4134 122.016 17.042 123.878 17.042C124.919 17.0645 125.903 17.5245 126.59 18.3096L127.975 16.7102C126.948 15.5268 125.439 14.876 123.876 14.9417C120.742 14.9417 118.375 17.0314 118.375 20.443C118.375 23.8546 120.741 25.9437 123.874 25.9444C125.458 25.9905 126.985 25.349 128.063 24.1844V21.1575H125.748L125.751 21.1581Z" fill="black"/>
<path d="M42.4191 22.2605C41.756 23.2466 40.6495 23.8404 39.4632 23.8467C37.6031 23.8467 36.2817 22.4753 36.2817 20.445C36.2817 18.4147 37.6005 17.0433 39.4625 17.0433C40.5064 17.0554 41.4947 17.5172 42.1751 18.3109L43.5598 16.7115C42.5324 15.528 41.0237 14.8772 39.4599 14.943C36.3259 14.943 33.9595 17.0327 33.9595 20.4443C33.9595 23.8559 36.3253 25.9457 39.4599 25.9457C41.1913 25.9782 42.8427 25.2158 43.9435 23.8757L42.5687 23.6861L42.4191 22.2605Z" fill="black"/>
</svg>
