<svg viewBox="0 0 140 35" fill="none" xmlns="http://www.w3.org/2000/svg">
<path fill-rule="evenodd" clip-rule="evenodd" d="M34.3504 6.59631L29.9224 19.495H25.9161L21.488 6.59631H25.0495L27.9077 15.8597L30.7896 6.59631H34.3504" fill="#1A1919"/>
<path fill-rule="evenodd" clip-rule="evenodd" d="M38.5168 11.4508H44.6787C44.3041 10.0436 43.2499 9.08228 41.6329 9.08228C39.9929 9.08228 38.9386 10.0667 38.5168 11.4508ZM48.2398 13.9132H38.3531C38.5643 15.9765 39.9701 17.0087 41.7039 17.0087C42.9917 17.0087 44.1168 16.4223 44.5622 15.3907H48.0298C47.0688 18.4395 44.4914 19.7759 41.7269 19.7759C37.6977 19.7759 34.9326 16.9148 34.9326 13.0688C34.9326 9.19913 37.7213 6.31445 41.6561 6.31445C45.9208 6.31445 48.5678 9.66799 48.2398 13.9132V13.9132Z" fill="#1A1919"/>
<path fill-rule="evenodd" clip-rule="evenodd" d="M56.3607 11.3576C54.4882 10.9354 53.8982 10.8154 53.8982 10.2066C53.8982 9.50151 54.723 9.12775 56.0538 9.12775C57.6013 9.12775 58.3057 9.62206 58.5647 10.4417H61.9603C61.5149 8.04888 59.7569 6.31274 56.1743 6.31274C52.778 6.31274 50.5262 7.88593 50.5262 10.6046C50.5262 12.8345 52.0252 13.6541 55.6798 14.5221C57.6249 14.9922 58.6307 15.0643 58.6307 15.9324C58.6307 16.6314 58.0461 16.987 56.5706 16.987C54.5657 16.987 53.7209 16.4388 53.5405 15.3902H50.1443C50.4511 18.1689 52.6685 19.7778 56.2935 19.7778C59.4791 19.7778 62.0989 18.3676 62.0989 15.4865C62.0989 12.9065 60.0395 12.2014 56.3607 11.3576" fill="#1A1919"/>
<path fill-rule="evenodd" clip-rule="evenodd" d="M79.025 11.4508H85.1875C84.8129 10.0436 83.7581 9.08228 82.1411 9.08228C80.5017 9.08228 79.4468 10.0667 79.025 11.4508ZM88.7477 13.9132H78.8615C79.0721 15.9765 80.4779 17.0087 82.2117 17.0087C83.5002 17.0087 84.6252 16.4223 85.07 15.3907H88.5377C87.5766 18.4395 84.9992 19.7759 82.2354 19.7759C78.2055 19.7759 75.4404 16.9148 75.4404 13.0688C75.4404 9.19913 78.2291 6.31445 82.1652 6.31445C86.4286 6.31445 89.0763 9.66799 88.7477 13.9132V13.9132Z" fill="#1A1919"/>
<path fill-rule="evenodd" clip-rule="evenodd" d="M97.8928 19.495L95.2457 15.4375L92.7385 19.495H88.7086L93.2541 12.8345L88.9428 6.59631H92.9255L95.3625 10.3721L97.635 6.59631H101.665L97.3542 12.9284L101.876 19.495H97.8928" fill="#1A1919"/>
<path fill-rule="evenodd" clip-rule="evenodd" d="M5.80835 6.59621V2.09595H1.3125L5.80835 6.59621" fill="#1A1919"/>
<path fill-rule="evenodd" clip-rule="evenodd" d="M2.45728 9.94985V19.495H5.80814V6.59631L2.45728 9.94985" fill="#1A1919"/>
<path fill-rule="evenodd" clip-rule="evenodd" d="M20.5211 11.4035V19.4948H17.1709V12.1304C17.1709 10.4422 16.5385 9.50383 14.7574 9.50383C12.8596 9.50383 11.8526 10.6063 11.8526 12.7168V19.4948H8.50171V6.59614H11.8526V8.35468C12.7894 7.04138 14.0784 6.31445 15.8588 6.31445C18.7643 6.31445 20.5211 8.23777 20.5211 11.4035" fill="#1A1919"/>
<path fill-rule="evenodd" clip-rule="evenodd" d="M73.7594 16.0232C72.7058 16.4854 71.9433 16.7847 71.191 16.7847C69.8542 16.7847 69.0027 15.8603 69.0027 14.3349V9.76077H73.8296V6.59624H69.0027V3.07611L63.3546 8.72975V9.76077H65.6482V14.5221C65.6482 18.2288 68.0956 19.7778 70.673 19.7778C72.2204 19.7778 74.0269 19.0321 74.7313 18.5681L73.7594 16.0232" fill="#1A1919"/>
<path fill-rule="evenodd" clip-rule="evenodd" d="M115.057 19.2659H116.914V17.0494H115.057V19.2659ZM111.433 19.2659H113.254V17.0494H111.433V19.2659ZM107.844 19.2659H109.629V17.0494H107.844V19.2659ZM118.717 19.266H120.519V20.9277H104.22V19.266H106.041V15.3697H118.717V19.266ZM111.433 11.5636C111.861 11.1523 112.2 10.7234 112.433 10.2587H108.773C108.594 10.8124 108.416 11.3134 108.219 11.7598C107.559 13.1004 106.576 14.3156 105.291 15.3878L104.203 13.9939C105.256 13.1004 106.059 12.0815 106.613 10.9736C107.041 9.97283 107.381 8.668 107.612 7.09542H105.095V5.37988H117.217V6.23765C117.093 7.02455 116.95 7.73875 116.789 8.38207H119.61V9.47246C119.431 11.8671 119.181 13.3324 118.842 13.9043C118.521 14.4228 118.039 14.7087 117.414 14.762C116.95 14.762 116.396 14.7802 115.736 14.7802L115.146 12.9393C115.646 13.0647 116.039 13.1355 116.307 13.1355C116.771 13.1355 117.111 12.9932 117.361 12.7248C117.574 12.4747 117.735 11.5993 117.842 10.0982H114.771C115.003 9.18654 115.218 8.18581 115.396 7.09542H109.451C109.361 7.63153 109.273 8.15007 109.183 8.61469H114.308V10.1515C114.075 11.0275 113.647 11.7956 113.04 12.4747C113.718 12.8678 114.343 13.2609 114.915 13.6723L113.521 15.048C112.986 14.5833 112.344 14.1187 111.611 13.6541C110.718 14.2259 109.612 14.673 108.29 15.0304L107.416 13.4578C108.362 13.2252 109.183 12.9393 109.879 12.6C109.415 12.3141 108.934 12.0458 108.433 11.7956L109.629 10.6343C110.255 10.9378 110.862 11.2413 111.433 11.5636V11.5636Z" fill="#1A1919"/>
<path fill-rule="evenodd" clip-rule="evenodd" d="M138.139 13.6007L133.104 13.8152V18.6225C133.104 19.0333 133.301 19.2477 133.73 19.2477H135.961C136.211 19.2477 136.407 19.1047 136.515 18.837C136.639 18.5505 136.729 17.6927 136.783 16.2631L138.549 16.8173C138.407 18.8545 138.175 20.0697 137.836 20.4635C137.479 20.8203 136.979 21.0171 136.319 21.0171H133.158C131.873 21.0171 131.23 20.3375 131.23 19.0157V13.9042L128.32 14.0296V12.2068L131.23 12.0814V8.20331C130.48 8.31113 129.712 8.40018 128.944 8.45349L128.356 6.79187C131.783 6.4702 134.515 5.86262 136.55 4.98667L137.443 6.54168C136.051 7.11353 134.604 7.55998 133.104 7.88225V12.01L138.139 11.7955V13.6007ZM122.553 21.2135L122.142 19.4083C122.713 19.4804 123.267 19.5155 123.767 19.5155C124.177 19.5155 124.392 19.3017 124.392 18.9079V15.2449C123.714 15.4417 123.035 15.638 122.357 15.8167L121.893 14.0297C122.732 13.8686 123.57 13.6723 124.392 13.4215V9.86563H122.107V8.06044H124.392V4.91528H126.267V8.06044H127.856V9.86563H126.267V12.7788C126.748 12.5819 127.23 12.3675 127.713 12.153V14.0297C127.23 14.226 126.748 14.4228 126.267 14.6015V19.3907C126.267 20.6059 125.641 21.2135 124.41 21.2135H122.553V21.2135Z" fill="#1A1919"/>
<path fill-rule="evenodd" clip-rule="evenodd" d="M5.44635 26.6671C5.54136 26.4054 5.63577 26.1285 5.73078 25.8438L6.44247 26.0104C6.36319 26.2394 6.29239 26.4611 6.21311 26.6671H8.9007V27.371H5.92807C5.71505 27.8374 5.48569 28.2572 5.24906 28.6207H6.27665V27.7744H6.9956V28.6207H8.64773V29.3015H6.9956V30.0769H8.98784V30.773H6.9956V32.1341H6.27665V30.773H4.1422V30.0769H6.27665V29.3015H4.53738L4.37156 28.6134C4.64812 28.2808 4.90109 27.8616 5.13832 27.371H4.213V26.6671H5.44635ZM3.9604 27.2281L3.423 27.7666C3.11497 27.371 2.67984 26.9518 2.11098 26.4927L2.63264 25.9941C3.1543 26.4054 3.59669 26.8174 3.9604 27.2281ZM5.76281 33.0677C5.25688 33.0604 4.84536 33.0126 4.52159 32.9338C4.20509 32.8381 3.93639 32.6485 3.69916 32.3795C3.59628 32.2451 3.50187 32.1814 3.40686 32.1814C3.24891 32.1814 2.96447 32.5376 2.56082 33.25L2.00769 32.7357C2.40287 32.0948 2.75871 31.6914 3.07462 31.5327V29.2937H2.00769V28.5971H3.77844V31.5963C3.80991 31.6278 3.84924 31.6599 3.88918 31.7071C4.06287 31.921 4.25289 32.0785 4.45079 32.1814C4.67954 32.2923 5.01965 32.3638 5.47777 32.3795C5.92076 32.3874 6.44242 32.3953 7.05062 32.3953C7.43007 32.3953 7.82585 32.3874 8.2289 32.3795C8.62408 32.3717 8.93212 32.3553 9.14574 32.3402L8.96359 33.084H7.1535C6.72685 33.084 6.26087 33.0762 5.76281 33.0677V33.0677Z" fill="#1A1919"/>
<path fill-rule="evenodd" clip-rule="evenodd" d="M15.4526 27.2444H13.8713C13.9978 27.577 14.1242 27.9489 14.235 28.3602H15.0568C15.199 27.9961 15.3334 27.6242 15.4526 27.2444ZM14.0053 30.5362C13.8946 30.7258 13.776 30.9154 13.6495 31.0977C14.0604 31.2407 14.4562 31.3982 14.8429 31.572C15.1437 31.2879 15.3573 30.9396 15.4838 30.5362H14.0053ZM14.9932 26.5641H16.7318V27.2443H16.1787C16.0522 27.6563 15.91 28.0276 15.7599 28.3602H16.8747V29.0798H12.4163V28.3602H13.5305C13.4197 27.964 13.2775 27.5927 13.1195 27.2443H12.5979V26.5641H14.2421C14.1629 26.3502 14.0685 26.1521 13.9734 25.9704L14.7481 25.8438C14.8352 26.0655 14.9139 26.3024 14.9932 26.5641ZM14.5902 29.2857C14.5267 29.4681 14.4559 29.6419 14.3845 29.8079H17.0013V30.5361H16.1946C16.0681 31.0582 15.8472 31.501 15.5307 31.8736C16.0523 32.1104 16.5504 32.3715 17.0327 32.6484L16.6212 33.242C16.1788 32.9652 15.6336 32.6726 14.9854 32.3715C14.448 32.7356 13.6335 33.0203 12.5351 33.2341L12.25 32.5611C13.0567 32.4194 13.7049 32.2292 14.1793 32.0075C13.7285 31.81 13.2467 31.604 12.7323 31.3981C12.9302 31.0976 13.1039 30.805 13.254 30.5361H12.3136V29.8079H13.6177C13.7127 29.6026 13.792 29.3966 13.8628 29.1991L14.5902 29.2857ZM10.0528 33.1471L9.88699 32.4196C10.0921 32.4432 10.2979 32.4589 10.4873 32.4589C10.6774 32.4589 10.7802 32.3638 10.7802 32.19V30.4726C10.4873 30.5835 10.1956 30.6943 9.89486 30.7894L9.70483 30.0371C10.0691 29.9511 10.4323 29.8396 10.7802 29.713V28.0907H9.86339V27.3711H10.7802V25.9233H11.5077V27.3711H12.1159V28.0907H11.5077V29.4046C11.7134 29.3095 11.9107 29.2066 12.108 29.0963V29.8632C11.9022 29.9662 11.7049 30.0613 11.5077 30.1564V32.3796C11.5077 32.886 11.2541 33.1471 10.7482 33.1471H10.0528V33.1471Z" fill="#1A1919"/>
<path fill-rule="evenodd" clip-rule="evenodd" d="M21.718 29.0241H23.7339V28.2802H21.718V29.0241ZM21.718 27.6242H23.7339V26.8567H21.718V27.6242ZM24.9045 30.4411C24.5722 30.8524 24.2006 31.1686 23.7897 31.391C24.0978 31.8253 24.4929 32.1978 24.9753 32.5141L24.5801 33.155C23.3867 32.3008 22.6671 31.1535 22.4299 29.6978H21.7182V32.1978C22.1219 32.087 22.517 31.9368 22.9122 31.7629L23.0859 32.4196C22.517 32.6485 21.8132 32.8702 20.9678 33.0841L20.8014 32.4589C20.9357 32.4111 21.0071 32.3402 21.0071 32.2451V26.1844H24.4221V29.6978H23.0859C23.1652 30.1085 23.2838 30.4811 23.4575 30.8288C23.7897 30.6313 24.1135 30.346 24.4221 29.9662L24.9045 30.4411ZM19.3712 26.0813C19.3077 26.3109 19.252 26.532 19.1885 26.7459H20.6197V27.4655H18.944C18.8332 27.7508 18.7068 28.0277 18.5803 28.2894H20.4454V28.9696H19.6793V29.8395H20.7063V30.5283H19.6793V32.1505C19.948 32.0548 20.2088 31.9446 20.4775 31.8101L20.604 32.4431C20.1295 32.6806 19.5764 32.8781 18.944 33.0362L18.6595 32.4195C18.8647 32.3553 18.9755 32.2608 18.9755 32.1269V30.5283H17.8771V29.8395H18.9755V28.9696H18.5252V28.3996C18.4302 28.5735 18.3352 28.74 18.2402 28.8981L17.632 28.5105C18.1058 27.7108 18.4459 26.8488 18.6511 25.9311L19.3712 26.0813V26.0813Z" fill="#1A1919"/>
<path fill-rule="evenodd" clip-rule="evenodd" d="M28.5775 27.0942H32.4355V26.3582H28.5775V27.0942ZM32.7764 28.3368V29.0728H31.5431V32.4275C31.5431 32.934 31.258 33.1872 30.697 33.1872H29.5508L29.385 32.4512C29.7481 32.4827 30.104 32.4984 30.4362 32.4984C30.665 32.4984 30.7842 32.4112 30.7842 32.2452V29.0728H28.3804V28.3368H32.7764ZM28.2851 28.0993C28.0714 28.5264 27.8027 28.9298 27.479 29.3097V33.2187H26.7437V30.0457C26.4592 30.291 26.1591 30.5285 25.8268 30.7581L25.6053 30.0136C26.5071 29.3805 27.1788 28.6373 27.6054 27.7831L28.2851 28.0993ZM27.9219 26.2874C27.4953 27.1573 26.7836 27.9333 25.7717 28.6293L25.543 27.8775C26.3097 27.3311 26.8707 26.6987 27.2344 25.9706L27.9219 26.2874V26.2874Z" fill="#1A1919"/>
<path fill-rule="evenodd" clip-rule="evenodd" d="M37.7615 29.3332C37.7615 30.0928 37.4141 30.655 36.726 31.0263L36.4652 30.5993C36.9239 30.3146 37.169 29.9511 37.2162 29.5234C37.169 29.5307 37.1218 29.5392 37.0662 29.5392C36.9082 29.5392 36.7654 29.4834 36.6552 29.3805C36.5445 29.2702 36.4888 29.1357 36.4888 28.977C36.4888 28.8032 36.5445 28.6687 36.6552 28.5663C36.7654 28.4554 36.9003 28.4076 37.0662 28.4076C37.5243 28.4076 37.7615 28.7165 37.7615 29.3332" fill="#1A1919"/>
<path fill-rule="evenodd" clip-rule="evenodd" d="M43.3573 30.3305H43.8868V29.3497H43.3573V30.3305ZM43.3573 28.7402H43.8868V27.751H43.3573V28.7402ZM42.2025 30.3305H42.7084V29.3497H42.2025V30.3305ZM42.2025 28.7402H42.7084V27.751H42.2025V28.7402ZM43.3568 30.9713V33.1944H42.7087V30.9713H42.2028V31.3911H41.5468V27.1265H42.7087V25.9077H43.3568V27.1265H44.543V30.964C45.104 30.5048 45.507 29.9191 45.7521 29.2152H44.8038V28.5427C45.5863 28.0115 46.3137 27.4505 46.977 26.8569H44.8903V26.1845H47.9973V26.8175C47.3806 27.4342 46.7004 28.0278 45.9657 28.5821H48.5268C48.479 30.5121 48.3925 31.7545 48.2654 32.2925C48.1395 32.831 47.7837 33.1078 47.2148 33.1236C46.977 33.1236 46.7561 33.1157 46.5425 33.0999L46.3452 32.3954C46.606 32.4112 46.8669 32.4275 47.1198 32.4275C47.357 32.4197 47.5229 32.2846 47.6021 32.0314C47.6965 31.8181 47.7595 30.8762 47.7994 29.2152H47.4914C47.3256 30.1087 47.0962 30.821 46.8112 31.359C46.4638 31.9684 45.9421 32.5142 45.2462 32.997L44.7959 32.4112C45.4205 32.0005 45.8943 31.5486 46.2102 31.0422C46.4795 30.5678 46.6847 29.9584 46.8269 29.2152H46.4323C46.1394 30.1959 45.6492 30.964 44.9539 31.5249L44.543 31.0185V31.3747H43.887V30.9713H43.3568V30.9713Z" fill="#1A1919"/>
<path fill-rule="evenodd" clip-rule="evenodd" d="M51.2044 28.6371H54.6431V28.1943H51.2044V28.6371ZM50.478 29.2774H55.3709V27.5606H50.478V29.2774ZM53.252 26.5083H56.3741V27.2128H49.466V26.5083H52.3981C52.2958 26.3345 52.1845 26.1764 52.0665 26.034L52.9355 25.8989C53.0463 26.0813 53.1491 26.2872 53.252 26.5083ZM52.6904 31.1292V30.9002L54.1846 30.2987H50.0585V29.6335H55.6866V30.1642C55.0385 30.4489 54.279 30.7578 53.4257 31.0898V31.1292H56.5484V31.8101H53.4257V32.3952C53.4257 32.941 53.157 33.2185 52.6275 33.2185H51.5291L51.3312 32.5376C51.7506 32.5697 52.0822 32.5933 52.3273 32.5933C52.5639 32.5933 52.6904 32.451 52.6904 32.1814V31.8101H49.2917V31.1292H52.6904V31.1292Z" fill="#1A1919"/>
<path fill-rule="evenodd" clip-rule="evenodd" d="M64.3407 29.65L63.7869 30.2043C63.2731 29.5549 62.5463 28.8589 61.6137 28.1071L62.1269 27.6085C63.0044 28.2894 63.7397 28.9697 64.3407 29.65ZM60.4444 26.7938C60.3094 26.5085 60.1672 26.2396 60.0093 26.0021L60.8468 25.8604C60.9969 26.1372 61.1397 26.4455 61.2741 26.7938H64.349V27.5135H57.306V26.7938H60.4444ZM60.0087 28.0992C59.4077 28.8903 58.6652 29.5706 57.7798 30.1564L57.2896 29.5234C58.1508 28.9854 58.8782 28.3439 59.4634 27.6164L60.0087 28.0992ZM62.7598 29.4127C62.3961 30.1014 61.961 30.7023 61.4393 31.2245C62.2612 31.7946 63.2658 32.2216 64.4513 32.5142L63.9847 33.2187C62.7514 32.8704 61.708 32.3797 60.8547 31.7388C59.9851 32.4197 58.9333 32.9261 57.7005 33.2502L57.2418 32.5542C58.4274 32.261 59.432 31.8182 60.2459 31.2324C59.7085 30.7345 59.2577 30.1644 58.9018 29.5235L59.55 29.1516C59.8743 29.7531 60.301 30.291 60.8311 30.7502C61.3371 30.2753 61.748 29.7216 62.0639 29.1037L62.7598 29.4127V29.4127Z" fill="#1A1919"/>
<path fill-rule="evenodd" clip-rule="evenodd" d="M67.0026 28.463H70.4884V27.9251H67.0026V28.463ZM67.0026 27.3311H70.4884V26.8089H67.0026V27.3311ZM66.268 29.0962V26.1685H71.2232V29.0962H68.1175C67.9988 29.2701 67.8639 29.4445 67.7223 29.6026H71.8169C71.7927 30.4725 71.7455 31.1685 71.6747 31.7071C71.5954 32.2292 71.4768 32.6012 71.311 32.8071C71.1446 33.0125 70.8759 33.1234 70.4964 33.1391H69.3974L69.2001 32.4346C69.5239 32.451 69.8325 32.4667 70.1327 32.4667C70.4885 32.4667 70.7258 32.3316 70.8365 32.0633C70.9467 31.7779 71.0259 31.1849 71.0574 30.2666H70.4413C69.7611 31.7464 68.6863 32.7278 67.2163 33.2027L66.7891 32.5776C68.109 32.1662 69.0736 31.3909 69.674 30.2666H68.8207C68.2675 31.1213 67.39 31.7943 66.1724 32.2844L65.6901 31.6986C66.7419 31.3188 67.5165 30.8445 68.0146 30.2666H66.987C66.6075 30.5519 66.1724 30.8051 65.6901 31.0262L65.2792 30.3617C66.1567 30.0218 66.8127 29.6026 67.2478 29.0962H66.268V29.0962Z" fill="#1A1919"/>
</svg>
