<svg xmlns="http://www.w3.org/2000/svg" width="227" height="52" viewBox="0 0 227 52">
    <g fill="#1A1919" fill-rule="evenodd">
        <path d="M54.593 8l-7.317 21.293h-6.62L33.339 8h5.885l4.723 15.292L48.709 8h5.884M61.478 16.014H71.66c-.619-2.323-2.361-3.91-5.033-3.91-2.71 0-4.452 1.625-5.149 3.91zm16.066 4.065H61.207c.349 3.406 2.672 5.11 5.537 5.11 2.128 0 3.987-.968 4.723-2.671h5.73c-1.588 5.033-5.847 7.239-10.415 7.239-6.658 0-11.227-4.723-11.227-11.072 0-6.388 4.608-11.15 11.11-11.15 7.047 0 11.421 5.536 10.879 12.544zM90.962 15.86c-3.094-.697-4.069-.895-4.069-1.9 0-1.164 1.363-1.781 3.562-1.781 2.557 0 3.721.816 4.149 2.169h5.611c-.736-3.95-3.641-6.816-9.561-6.816-5.612 0-9.333 2.597-9.333 7.085 0 3.681 2.477 5.034 8.516 6.467 3.214.776 4.876.895 4.876 2.328 0 1.154-.966 1.741-3.404 1.741-3.313 0-4.709-.905-5.007-2.636H80.69c.507 4.587 4.171 7.243 10.161 7.243 5.264 0 9.593-2.328 9.593-7.084 0-4.259-3.403-5.423-9.482-6.816M128.414 16.014h10.183c-.619-2.323-2.362-3.91-5.034-3.91-2.709 0-4.452 1.625-5.149 3.91zm16.066 4.065h-16.336c.348 3.406 2.671 5.11 5.536 5.11 2.129 0 3.988-.968 4.723-2.671h5.73c-1.588 5.033-5.847 7.239-10.414 7.239-6.659 0-11.228-4.723-11.228-11.072 0-6.388 4.608-11.15 11.112-11.15 7.045 0 11.42 5.536 10.877 12.544z"/>
        <path d="M159.59 29.293l-4.374-6.698-4.143 6.698h-6.659l7.511-10.995L144.801 8h6.581l4.027 6.233L159.164 8h6.659L158.7 18.453l7.472 10.84h-6.582M7.429 8V.571H0L7.429 8M1.892 13.536v15.757h5.537V8l-5.537 5.536M31.741 15.936v13.357h-5.536V17.136c0-2.787-1.045-4.336-3.988-4.336-3.136 0-4.8 1.82-4.8 5.304v11.189H11.88V8h5.537v2.903c1.548-2.168 3.678-3.368 6.62-3.368 4.801 0 7.704 3.175 7.704 8.401M119.713 23.562c-1.741.763-3.001 1.257-4.244 1.257-2.209 0-3.616-1.526-3.616-4.044v-7.551h7.976V8h-7.976V2.189l-9.333 9.333v1.702h3.79v7.86c0 6.119 4.044 8.676 8.303 8.676 2.557 0 5.542-1.231 6.706-1.997l-1.606-4.201M187.952 28.915h3.068v-3.659h-3.068v3.659zm-5.988 0h3.009v-3.659h-3.009v3.659zm-5.93 0h2.95v-3.659h-2.95v3.659zm17.967 0h2.978v2.743h-26.933v-2.743h3.009v-6.432h20.946v6.432zM181.964 16.2c.708-.679 1.268-1.387 1.652-2.154h-6.048c-.295.914-.59 1.741-.914 2.478-1.092 2.213-2.715 4.219-4.839 5.989l-1.798-2.301c1.74-1.475 3.067-3.157 3.982-4.986.708-1.652 1.269-3.806 1.651-6.402h-4.159V5.992h20.031v1.416a41.184 41.184 0 0 1-.708 3.54h4.662v1.8c-.296 3.953-.709 6.372-1.269 7.316-.531.856-1.327 1.328-2.36 1.416-.767 0-1.682.03-2.773.03l-.974-3.039c.826.207 1.475.324 1.918.324.766 0 1.328-.235 1.741-.678.352-.413.619-1.858.796-4.336h-5.075a57.568 57.568 0 0 0 1.033-4.957h-9.824c-.148.885-.294 1.741-.442 2.508h8.467v2.537c-.384 1.446-1.092 2.714-2.095 3.835a37.522 37.522 0 0 1 3.098 1.977l-2.302 2.271c-.885-.767-1.946-1.534-3.156-2.301-1.476.944-3.304 1.682-5.488 2.272l-1.445-2.596c1.564-.384 2.921-.856 4.071-1.416a30.886 30.886 0 0 0-2.39-1.328l1.977-1.917a54.829 54.829 0 0 1 2.98 1.534zM226.093 19.563l-8.319.354v7.936c0 .678.325 1.032 1.033 1.032h3.687c.413 0 .737-.236.915-.678.206-.473.355-1.889.443-4.249l2.919.915c-.235 3.363-.619 5.369-1.179 6.019-.59.589-1.416.914-2.507.914h-5.223c-2.123 0-3.185-1.122-3.185-3.304v-8.438l-4.809.207v-3.009l4.809-.207v-6.402c-1.24.178-2.508.325-3.777.413l-.973-2.743c5.664-.531 10.177-1.534 13.541-2.98l1.475 2.567a42.138 42.138 0 0 1-7.169 2.213v6.814l8.319-.354v2.98zM200.339 32.13l-.679-2.98c.944.119 1.859.177 2.685.177.678 0 1.033-.353 1.033-1.003v-6.047a140.81 140.81 0 0 1-3.363.944l-.767-2.95a39.996 39.996 0 0 0 4.13-1.004v-5.87h-3.776v-2.98h3.776V5.225h3.098v5.192h2.626v2.98h-2.626v4.809a87.445 87.445 0 0 0 2.389-1.033v3.098c-.797.324-1.594.649-2.389.944v7.906c0 2.006-1.034 3.009-3.069 3.009h-3.068zM6.831 41.133c.157-.432.313-.889.47-1.359l1.176.275c-.131.378-.248.744-.379 1.084h4.441v1.162H7.627c-.352.77-.731 1.463-1.122 2.063h1.698v-1.397h1.188v1.397h2.73v1.124h-2.73v1.28h3.292v1.149H9.391v2.247H8.203v-2.247H4.676v-1.149h3.527v-1.28H5.329l-.274-1.136c.457-.549.875-1.241 1.267-2.051H4.793v-1.162h2.038zm-2.456.926l-.888.889c-.509-.653-1.228-1.345-2.168-2.103l.862-.823a16.888 16.888 0 0 1 2.194 2.037zm2.979 9.64c-.836-.012-1.516-.091-2.051-.221-.523-.158-.967-.471-1.359-.915-.17-.222-.326-.327-.483-.327-.261 0-.731.588-1.398 1.764l-.914-.849c.653-1.058 1.241-1.724 1.763-1.986v-3.696H1.149v-1.15h2.926v4.951c.052.052.117.105.183.183.287.353.601.613.928.783.378.183.94.301 1.697.327.732.013 1.594.026 2.599.026.627 0 1.281-.013 1.947-.026.653-.013 1.162-.04 1.515-.065l-.301 1.228H9.652c-.705 0-1.475-.013-2.298-.027zM23.365 42.086h-2.613c.209.549.418 1.163.601 1.842h1.358c.235-.601.457-1.215.654-1.842zm-2.391 5.434c-.183.313-.379.626-.588.927.679.236 1.333.496 1.972.783a3.934 3.934 0 0 0 1.059-1.71h-2.443zm1.633-6.557h2.873v1.123h-.914c-.209.68-.444 1.293-.692 1.842h1.842v1.188h-7.367v-1.188h1.841a12.796 12.796 0 0 0-.679-1.842h-.862v-1.123h2.717a8.473 8.473 0 0 0-.444-.98l1.28-.209c.144.366.274.757.405 1.189zm-.666 4.493a13.01 13.01 0 0 1-.34.862h4.324v1.202h-1.333c-.209.862-.574 1.593-1.097 2.208.862.391 1.685.822 2.482 1.279l-.68.98a25.004 25.004 0 0 0-2.703-1.437c-.888.601-2.234 1.071-4.049 1.424l-.471-1.111c1.333-.234 2.404-.548 3.188-.914a80.57 80.57 0 0 0-2.391-1.006c.327-.496.614-.979.862-1.423h-1.554v-1.202h2.155c.157-.339.288-.679.405-1.005l1.202.143zm-7.498 6.374l-.274-1.201c.339.039.679.065.992.065.314 0 .484-.157.484-.444v-2.835c-.484.183-.966.366-1.463.523l-.314-1.242a15.971 15.971 0 0 0 1.777-.535v-2.678H14.13v-1.188h1.515v-2.39h1.202v2.39h1.005v1.188h-1.005v2.169c.34-.157.666-.327.992-.509v1.266c-.34.17-.666.327-.992.484v3.67c0 .836-.419 1.267-1.255 1.267h-1.149zM33.719 45.024h3.331v-1.228h-3.331v1.228zm0-2.311h3.331v-1.267h-3.331v1.267zm5.265 4.65c-.549.679-1.163 1.201-1.842 1.568.509.717 1.162 1.332 1.959 1.854l-.653 1.058c-1.972-1.41-3.161-3.304-3.553-5.707h-1.176v4.127c.667-.183 1.32-.431 1.973-.718l.287 1.084c-.94.378-2.103.744-3.5 1.097l-.275-1.032c.222-.079.34-.196.34-.353V40.336h5.643v5.8h-2.208c.131.678.327 1.293.614 1.867.549-.326 1.084-.797 1.594-1.424l.797.784zm-9.143-7.197c-.105.379-.197.744-.302 1.097h2.365v1.188h-2.769a18.64 18.64 0 0 1-.601 1.36h3.082v1.123H30.35v1.436h1.697v1.137H30.35v2.678c.444-.158.875-.34 1.319-.562l.209 1.045c-.784.392-1.698.718-2.743.979l-.47-1.018c.339-.106.522-.262.522-.483v-2.639h-1.815V46.37h1.815v-1.436h-.744v-.941c-.157.287-.314.562-.471.823l-1.005-.64a14.513 14.513 0 0 0 1.684-4.258l1.19.248zM45.054 41.838h6.375v-1.215h-6.375v1.215zm6.937 2.051v1.215h-2.038v5.538c0 .836-.471 1.254-1.398 1.254h-1.894l-.274-1.215c.6.052 1.188.078 1.737.078.378 0 .575-.144.575-.418v-5.237h-3.972v-1.215h7.264zm-7.42-.392a9.907 9.907 0 0 1-1.332 1.998v6.453h-1.215V46.71c-.47.405-.966.797-1.515 1.176l-.366-1.229c1.49-1.045 2.6-2.272 3.305-3.682l1.123.522zm-.601-2.991c-.705 1.436-1.881 2.717-3.553 3.866l-.378-1.241c1.267-.902 2.194-1.946 2.795-3.148l1.136.523zM60.229 45.534c0 1.254-.574 2.182-1.711 2.795l-.431-.705c.758-.47 1.163-1.07 1.241-1.776-.078.012-.156.026-.248.026a.979.979 0 0 1-.679-.262.904.904 0 0 1-.275-.666c0-.287.092-.509.275-.678.182-.183.405-.262.679-.262.757 0 1.149.51 1.149 1.528M69.474 47.18h.875v-1.619h-.875v1.619zm0-2.625h.875v-1.633h-.875v1.633zm-1.907 2.625h.836v-1.619h-.836v1.619zm0-2.625h.836v-1.633h-.836v1.633zm1.907 3.683v3.67h-1.071v-3.67h-.836v.693h-1.084v-7.04h1.92v-2.012h1.071v2.012h1.96v6.335c.927-.758 1.593-1.725 1.998-2.887h-1.567v-1.11a34.075 34.075 0 0 0 3.591-2.783h-3.448v-1.11h5.134v1.045a32.062 32.062 0 0 1-3.357 2.913h4.232c-.079 3.186-.222 5.237-.432 6.125-.208.889-.796 1.346-1.736 1.372-.393 0-.758-.013-1.111-.039l-.326-1.163c.431.026.862.053 1.28.053.392-.013.666-.236.797-.654.156-.352.26-1.907.326-4.649h-.509c-.274 1.475-.653 2.651-1.124 3.539-.574 1.006-1.436 1.907-2.586 2.704l-.744-.967c1.032-.678 1.815-1.424 2.337-2.26.445-.783.784-1.789 1.019-3.016h-.652c-.484 1.619-1.294 2.887-2.443 3.813l-.679-.836v.588H70.35v-.666h-.876zM82.442 44.385h5.682v-.731h-5.682v.731zm-1.201 1.057h8.085v-2.834h-8.085v2.834zm4.584-4.571h5.159v1.163H79.569v-1.163h4.845a5.963 5.963 0 0 0-.548-.783l1.436-.223c.183.301.353.641.523 1.006zm-.928 7.628v-.378l2.469-.993h-6.818V46.03h9.3v.876c-1.071.47-2.326.98-3.736 1.528v.065h5.16v1.124h-5.16v.966c0 .901-.444 1.359-1.319 1.359h-1.815l-.327-1.124c.693.053 1.241.092 1.646.092.391 0 .6-.235.6-.68v-.613h-5.616v-1.124h5.616zM104.148 46.057l-.915.915c-.849-1.072-2.05-2.221-3.591-3.462l.848-.823c1.45 1.124 2.665 2.247 3.658 3.37zm-6.439-4.715a10.4 10.4 0 0 0-.719-1.307l1.384-.234c.248.457.484.966.706 1.541h5.081v1.188H92.523v-1.188h5.186zm-.719 2.155c-.993 1.306-2.22 2.429-3.683 3.396l-.81-1.045c1.423-.888 2.625-1.947 3.592-3.148l.901.797zm4.546 2.168a12.32 12.32 0 0 1-2.182 2.991c1.358.941 3.018 1.646 4.977 2.129l-.771 1.163c-2.038-.575-3.762-1.385-5.172-2.443-1.437 1.124-3.175 1.96-5.212 2.495l-.758-1.149c1.959-.484 3.619-1.215 4.964-2.182a11.329 11.329 0 0 1-2.221-2.821l1.071-.614a9.332 9.332 0 0 0 2.117 2.639 9.864 9.864 0 0 0 2.037-2.718l1.15.51zM108.547 44.098h5.76v-.888h-5.76v.888zm0-1.869h5.76v-.862h-5.76v.862zm-1.214 2.914V40.31h8.188v4.833h-5.132a8.171 8.171 0 0 1-.653.836h6.766c-.04 1.436-.118 2.585-.235 3.474-.131.862-.327 1.476-.601 1.816-.275.339-.719.522-1.346.548h-1.816l-.326-1.163c.535.027 1.045.053 1.541.053.588 0 .98-.223 1.163-.666.182-.471.313-1.45.365-2.966h-1.018c-1.124 2.443-2.9 4.063-5.329 4.847l-.706-1.032c2.181-.679 3.775-1.959 4.767-3.815h-1.41c-.914 1.411-2.364 2.522-4.376 3.331l-.797-.967c1.738-.627 3.018-1.41 3.841-2.364h-1.698c-.627.471-1.346.889-2.143 1.254l-.679-1.097c1.45-.561 2.534-1.253 3.253-2.089h-1.619z"/>
    </g>
</svg>
