<svg viewBox="0 0 140 35" fill="none" xmlns="http://www.w3.org/2000/svg">
<path d="M52.4836 22.4909C52.747 22.228 52.747 21.8335 52.4932 21.5798C52.2393 21.3169 51.8256 21.3169 51.5722 21.5798C51.3187 21.8335 51.3187 22.228 51.5722 22.4909C51.8355 22.7447 52.2298 22.7447 52.4836 22.4909" fill="black"/>
<path d="M26.8917 28.0796H27.9063V24.3601H29.0153V23.3835H27.9063V23.2895C27.9063 22.6036 28.2728 22.2939 29.0153 22.3597V21.3828C27.6247 21.2983 26.8917 22.0025 26.8917 23.2895V23.3835H26.1774V24.3601H26.8917V28.0796Z" fill="black"/>
<path fill-rule="evenodd" clip-rule="evenodd" d="M33.5667 23.9753C34.0459 24.4543 34.2902 25.0363 34.2902 25.7314C34.2902 26.4265 34.0459 27.0089 33.5667 27.4879C33.0876 27.9668 32.505 28.2016 31.8097 28.2016C31.1239 28.2016 30.5317 27.9668 30.0526 27.4879C29.5734 27.0089 29.3291 26.4265 29.3291 25.7314C29.3291 25.0363 29.5734 24.4543 30.0526 23.9753C30.5317 23.496 31.1239 23.2612 31.8097 23.2612C32.505 23.2612 33.0876 23.496 33.5667 23.9753ZM31.8095 27.2154C32.2228 27.2154 32.571 27.0746 32.8522 26.7927C33.1342 26.5108 33.275 26.154 33.275 25.7313C33.275 25.3087 33.1342 24.9518 32.8522 24.6699C32.571 24.3884 32.2228 24.2476 31.8095 24.2476C31.3958 24.2476 31.0483 24.3884 30.7667 24.6699C30.4847 24.9518 30.3435 25.3087 30.3435 25.7313C30.3435 26.154 30.4847 26.5108 30.7667 26.7927C31.0483 27.0746 31.3958 27.2154 31.8095 27.2154Z" fill="black"/>
<path d="M36.6361 24.6795C36.9273 24.4635 37.2656 24.3695 37.6507 24.3976V23.299C36.9459 23.299 36.4577 23.59 36.2038 24.1724V23.3834H35.1888V28.0795H36.2038V25.7124C36.2038 25.2338 36.3446 24.8861 36.6361 24.6795" fill="black"/>
<path d="M41.7647 25.7126C41.7647 25.2337 41.9055 24.8863 42.1971 24.6797C42.4882 24.4637 42.8265 24.3697 43.2117 24.3978V23.2988C42.5068 23.2988 42.0186 23.5898 41.7647 24.1722V23.3832H40.7498V28.0797H41.7647V25.7126Z" fill="black"/>
<path fill-rule="evenodd" clip-rule="evenodd" d="M48.2274 27.1777C47.7669 27.8636 47.0815 28.2014 46.17 28.2014C45.4085 28.2014 44.7886 27.9671 44.319 27.5067C43.8489 27.0369 43.6141 26.4453 43.6141 25.7316C43.6141 25.0271 43.8489 24.4446 44.3094 23.9752C44.7699 23.4962 45.3712 23.2615 46.0947 23.2615C46.7809 23.2615 47.3445 23.5053 47.7856 23.9843C48.2274 24.4636 48.4531 25.0552 48.4531 25.7408C48.4531 25.8442 48.4436 25.985 48.4154 26.1634H44.6759C44.8263 26.8771 45.3994 27.2716 46.1796 27.2716C46.7146 27.2716 47.1188 27.0746 47.3913 26.6896L48.2274 27.1777ZM47.4293 25.3371C47.2881 24.5762 46.7526 24.1817 46.0855 24.1817C45.3339 24.1817 44.8076 24.623 44.6667 25.3371H47.4293Z" fill="black"/>
<path d="M49.3494 28.0795H50.3643V21.3877H49.3494V28.0795Z" fill="black"/>
<path d="M51.5248 28.0795H52.5398V23.3834H51.5248V28.0795Z" fill="black"/>
<path fill-rule="evenodd" clip-rule="evenodd" d="M57.3997 27.4034C57.0146 27.9387 56.4696 28.2016 55.756 28.2016C55.1071 28.2016 54.5622 27.9668 54.1021 27.4879C53.6416 27.0089 53.4159 26.4173 53.4159 25.7314C53.4159 25.0363 53.6416 24.4543 54.1021 23.9753C54.5622 23.496 55.1071 23.2612 55.756 23.2612C56.4696 23.2612 57.0146 23.5245 57.3997 24.0503V23.3834H58.4143V28.0794H57.3997V27.4034ZM55.9149 24.2287C55.4921 24.2287 55.1351 24.3695 54.8535 24.6609C54.5715 24.9424 54.4303 25.2996 54.4303 25.7314C54.4303 26.1636 54.5715 26.5204 54.8535 26.8115C55.1351 27.0938 55.4921 27.2345 55.9149 27.2345C56.3377 27.2345 56.6951 27.0938 56.9771 26.8115C57.2587 26.5204 57.3995 26.1636 57.3995 25.7314C57.3995 25.2996 57.2587 24.9424 56.9771 24.6609C56.6951 24.3695 56.3377 24.2287 55.9149 24.2287Z" fill="black"/>
<path fill-rule="evenodd" clip-rule="evenodd" d="M62.2462 28.2015C61.5323 28.2015 60.9877 27.9386 60.6021 27.4033V28.0794H59.5872V21.5047H60.6021V24.0502C60.9877 23.5244 61.5323 23.2612 62.2462 23.2612C62.8947 23.2612 63.4397 23.4959 63.8998 23.9752C64.3606 24.4542 64.5859 25.0363 64.5859 25.7313C64.5859 26.4173 64.3606 27.0088 63.8998 27.4878C63.4397 27.9668 62.8947 28.2015 62.2462 28.2015ZM62.0867 24.2286C61.6635 24.2286 61.3069 24.3693 61.0249 24.6608C60.7429 24.9423 60.6021 25.2995 60.6021 25.7313C60.6021 26.1635 60.7429 26.5203 61.0249 26.8113C61.3069 27.0936 61.6635 27.2344 62.0867 27.2344C62.5095 27.2344 62.8661 27.0936 63.1481 26.8113C63.4301 26.5203 63.571 26.1635 63.571 25.7313C63.571 25.2995 63.4301 24.9423 63.1481 24.6608C62.8661 24.3693 62.5095 24.2286 62.0867 24.2286Z" fill="black"/>
<path d="M65.5007 28.0795H66.5157V21.3877H65.5007V28.0795Z" fill="black"/>
<path fill-rule="evenodd" clip-rule="evenodd" d="M69.9922 27.2716C70.5273 27.2716 70.9314 27.0746 71.2039 26.6896L72.0404 27.1777C71.5795 27.8636 70.8941 28.2014 69.9827 28.2014C69.2215 28.2014 68.6012 27.9671 68.1316 27.5067C67.6616 27.0369 67.4268 26.4453 67.4268 25.7316C67.4268 25.0271 67.6616 24.4446 68.1221 23.9752C68.5825 23.4962 69.1842 23.2615 69.9073 23.2615C70.5935 23.2615 71.1571 23.5053 71.5986 23.9843C72.0404 24.4636 72.2661 25.0552 72.2661 25.7408C72.2661 25.8442 72.2562 25.985 72.228 26.1634H68.4889C68.6393 26.8771 69.2124 27.2716 69.9922 27.2716ZM71.2419 25.3371C71.1007 24.5762 70.5657 24.1817 69.8981 24.1817C69.1465 24.1817 68.6202 24.623 68.4794 25.3371H71.2419Z" fill="black"/>
<path fill-rule="evenodd" clip-rule="evenodd" d="M26.985 30.6769C27.4455 30.1979 28.0468 29.9632 28.7702 29.9632C29.4564 29.9632 30.0196 30.2074 30.4611 30.6864C30.9029 31.1654 31.1286 31.7573 31.1286 32.4429C31.1286 32.546 31.1191 32.6867 31.0909 32.8652H27.3515C27.5018 33.5792 28.0749 33.9734 28.8551 33.9734C29.3902 33.9734 29.7943 33.7763 30.0668 33.3913L30.9029 33.8798C30.4424 34.5653 29.757 34.9035 28.8452 34.9035C28.0841 34.9035 27.4641 34.6688 26.9945 34.2085C26.5245 33.7386 26.2897 33.1471 26.2897 32.4334C26.2897 31.7292 26.5245 31.1463 26.985 30.6769ZM28.761 30.8834C28.009 30.8834 27.4831 31.3251 27.3423 32.0388H30.1048C29.9636 31.2779 29.4282 30.8834 28.761 30.8834Z" fill="black"/>
<path d="M32.0376 32.9216H35.5137V31.9446H32.0376V32.9216Z" fill="black"/>
<path d="M38.9068 33.9079C38.4939 33.9079 38.1461 33.7668 37.8641 33.4853C37.5916 33.2034 37.4504 32.856 37.4504 32.4334C37.4504 32.0107 37.5916 31.663 37.8641 31.3815C38.1461 31.0996 38.4939 30.9588 38.9068 30.9588C39.4708 30.9588 39.9218 31.2312 40.1376 31.682L41.0114 31.1745C40.6358 30.4327 39.8278 29.9632 38.9163 29.9632C38.2115 29.9632 37.6201 30.1979 37.1406 30.6769C36.671 31.1463 36.4358 31.7288 36.4358 32.4334C36.4358 33.1284 36.671 33.7109 37.1406 34.1894C37.6201 34.6688 38.2115 34.9035 38.9163 34.9035C39.8278 34.9035 40.6266 34.4341 41.0308 33.6827L40.1566 33.1847C39.9309 33.626 39.4613 33.9079 38.9068 33.9079" fill="black"/>
<path fill-rule="evenodd" clip-rule="evenodd" d="M42.182 30.677C42.6611 30.1977 43.2529 29.963 43.939 29.963C44.634 29.963 45.217 30.1977 45.6961 30.677C46.1753 31.156 46.4196 31.7381 46.4196 32.4331C46.4196 33.1282 46.1753 33.7106 45.6961 34.1896C45.217 34.6686 44.634 34.9033 43.939 34.9033C43.2529 34.9033 42.6611 34.6686 42.182 34.1896C41.7028 33.7106 41.4585 33.1282 41.4585 32.4331C41.4585 31.7381 41.7028 31.156 42.182 30.677ZM43.9389 33.9172C44.3522 33.9172 44.7 33.7765 44.9816 33.4946C45.2636 33.2127 45.4044 32.8558 45.4044 32.4331C45.4044 32.0105 45.2636 31.6536 44.9816 31.3717C44.7 31.0902 44.3522 30.9491 43.9389 30.9491C43.5252 30.9491 43.1777 31.0902 42.8961 31.3717C42.6141 31.6536 42.4729 32.0105 42.4729 32.4331C42.4729 32.8558 42.6141 33.2127 42.8961 33.4946C43.1777 33.7765 43.5252 33.9172 43.9389 33.9172Z" fill="black"/>
<path d="M52.4486 29.9631C51.8001 29.9631 51.3209 30.2074 51.0108 30.7054C50.7196 30.2074 50.2778 29.9631 49.6765 29.9631C49.0847 29.9631 48.6337 30.1884 48.3331 30.6487V30.0853H47.3181V34.7813H48.3331V32.1514C48.3331 31.3342 48.7654 30.9116 49.3759 30.9116C49.9399 30.9116 50.2592 31.2874 50.2592 31.9353V34.7813H51.2738V32.1514C51.2738 31.3251 51.6688 30.9116 52.2983 30.9116C52.8615 30.9116 53.2093 31.2874 53.2093 31.9353V34.7813H54.2243V31.8695C54.2243 30.7054 53.51 29.9631 52.4486 29.9631" fill="black"/>
<path d="M60.4773 29.9631C59.8284 29.9631 59.35 30.2074 59.0395 30.7054C58.7483 30.2074 58.3065 29.9631 57.7052 29.9631C57.1134 29.9631 56.6624 30.1884 56.3618 30.6487V30.0853H55.3468V34.7813H56.3618V32.1514C56.3618 31.3342 56.7941 30.9116 57.4045 30.9116C57.9685 30.9116 58.2878 31.2874 58.2878 31.9353V34.7813H59.3028V32.1514C59.3028 31.3251 59.6975 30.9116 60.3269 30.9116C60.8906 30.9116 61.238 31.2874 61.238 31.9353V34.7813H62.253V31.8695C62.253 30.7054 61.5387 29.9631 60.4773 29.9631" fill="black"/>
<path fill-rule="evenodd" clip-rule="evenodd" d="M63.7938 30.6769C64.2539 30.1979 64.8556 29.9632 65.5787 29.9632C66.2649 29.9632 66.8285 30.2074 67.2699 30.6864C67.7118 31.1654 67.9375 31.7573 67.9375 32.4429C67.9375 32.546 67.9276 32.6867 67.8994 32.8652H64.1603C64.3106 33.5792 64.8838 33.9734 65.6636 33.9734C66.199 33.9734 66.6028 33.7763 66.8753 33.3913L67.7118 33.8798C67.2513 34.5653 66.5655 34.9035 65.654 34.9035C64.8929 34.9035 64.2729 34.6688 63.8029 34.2085C63.3329 33.7386 63.0985 33.1471 63.0985 32.4334C63.0985 31.7292 63.3329 31.1463 63.7938 30.6769ZM65.5695 30.8834C64.8179 30.8834 64.2919 31.3251 64.1511 32.0388H66.9137C66.7725 31.2779 66.237 30.8834 65.5695 30.8834Z" fill="black"/>
<path d="M69.837 30.8741V30.0851H68.822V34.7815H69.837V32.4145C69.837 31.9355 69.9778 31.5878 70.2693 31.3812C70.5605 31.1655 70.8988 31.0715 71.2839 31.0997V30.0006C70.5791 30.0006 70.0908 30.2916 69.837 30.8741" fill="black"/>
<path d="M74.1574 33.9079C73.7441 33.9079 73.3967 33.7668 73.1147 33.4853C72.8422 33.2034 72.701 32.856 72.701 32.4334C72.701 32.0107 72.8422 31.663 73.1147 31.3815C73.3967 31.0996 73.7441 30.9588 74.1574 30.9588C74.7214 30.9588 75.1724 31.2312 75.3882 31.682L76.262 31.1745C75.886 30.4327 75.078 29.9632 74.167 29.9632C73.4621 29.9632 72.8704 30.1979 72.3912 30.6769C71.9212 31.1463 71.6864 31.7288 71.6864 32.4334C71.6864 33.1284 71.9212 33.7109 72.3912 34.1894C72.8704 34.6688 73.4621 34.9035 74.167 34.9035C75.078 34.9035 75.8772 34.4341 76.281 33.6827L75.4068 33.1847C75.1816 33.626 74.7119 33.9079 74.1574 33.9079" fill="black"/>
<path fill-rule="evenodd" clip-rule="evenodd" d="M80.8883 30.6864C81.3302 31.1654 81.5559 31.7573 81.5559 32.4429C81.5559 32.546 81.5464 32.6867 81.5182 32.8652H77.7783C77.9287 33.5792 78.5022 33.9734 79.2816 33.9734C79.8174 33.9734 80.2216 33.7763 80.4941 33.3913L81.3302 33.8798C80.8697 34.5653 80.1835 34.9035 79.2724 34.9035C78.5113 34.9035 77.8914 34.6688 77.4217 34.2085C76.9521 33.7386 76.7169 33.1471 76.7169 32.4334C76.7169 31.7292 76.9521 31.1463 77.4122 30.6769C77.8727 30.1979 78.474 29.9632 79.1971 29.9632C79.8829 29.9632 80.4469 30.2074 80.8883 30.6864ZM79.1883 30.8834C78.4363 30.8834 77.9103 31.3251 77.7695 32.0388H80.5321C80.3909 31.2779 79.8554 30.8834 79.1883 30.8834Z" fill="black"/>
<path d="M115.131 10.6917H117.131V0H115.131V10.6917Z" fill="black"/>
<path d="M115.131 17.3836H117.131V12.6917H115.131V17.3836Z" fill="black"/>
<path d="M78.7264 7.64712C77.7514 6.43658 76.3136 5.69397 74.6212 5.69397C71.6543 5.69397 69.2753 7.86017 68.8145 10.6917H70.8574C71.3038 8.91968 72.8926 7.56419 74.7274 7.56419C76.5617 7.56419 78.1506 8.91968 78.5974 10.6917H78.7264H80.0055H80.7271V5.99984H78.7264V7.64712Z" fill="black"/>
<path d="M88.0348 5.69385C86.3242 5.69385 84.8605 6.45243 83.8733 7.68618V5.99972H81.873V10.6916H82.6079H83.8733H84.0027C84.4491 8.91955 86.038 7.56406 87.8727 7.56406C89.7071 7.56406 91.2959 8.91955 91.7427 10.6916H93.7872C93.3358 7.85966 91.0018 5.69385 88.0348 5.69385" fill="black"/>
<path d="M87.8725 15.8189C86.0381 15.8189 84.4493 14.4634 84.0025 12.6917H83.8735H82.6077H81.8728V21.3835H83.8735V15.6971C84.8603 16.9309 86.3239 17.6895 88.0346 17.6895C91.0015 17.6895 93.3356 15.5233 93.7873 12.6917H91.7425C91.2957 14.4634 89.7068 15.8189 87.8725 15.8189" fill="black"/>
<path d="M111.984 7.64712C111.009 6.43658 109.572 5.69397 107.879 5.69397C104.912 5.69397 102.534 7.86017 102.073 10.6917H104.115C104.562 8.91968 106.151 7.56419 107.985 7.56419C109.82 7.56419 111.409 8.91968 111.855 10.6917H111.984H113.264H113.985V5.99984H111.984V7.64712Z" fill="black"/>
<path d="M111.984 12.6916H111.855C111.409 14.4637 109.82 15.8191 107.985 15.8191C106.151 15.8191 104.562 14.4637 104.115 12.6916H102.073C102.534 15.5235 104.912 17.6894 107.879 17.6894C109.572 17.6894 111.009 16.9468 111.984 15.7362V17.3835H113.985V12.6916H113.264H111.984Z" fill="black"/>
<path d="M50.1731 7.69398V5.69403H50.0064C48.3939 5.69403 47.1502 6.45338 46.3407 7.73316V5.9999H44.3401V17.3837H46.3407V11.8312V11.6916C46.3407 9.37512 47.882 7.69398 50.0064 7.69398H50.1731Z" fill="black"/>
<path d="M41.1941 17.3836H43.1947V5.99988H41.1941V17.3836Z" fill="black"/>
<path d="M97.8309 10.6918H99.8315V7.99988H102.409V5.99993H99.8315V2.86096H97.8309V5.99993H96.6853H95.321H94.6847V10.6918H96.6853V7.99988H97.8309V10.6918Z" fill="black"/>
<path d="M99.8309 14.1425V12.6919H97.8302V14.3057C97.8302 16.2665 99.405 17.6893 101.575 17.6893H102.408V15.6893H101.575C100.401 15.6893 99.8309 15.1834 99.8309 14.1425" fill="black"/>
<path d="M94.6837 17.3836H96.6844V12.6917H94.6837V17.3836Z" fill="black"/>
<path d="M67.7439 14.5186C66.9048 15.357 65.9005 15.8189 64.9159 15.8189C63.0816 15.8189 61.4927 14.4638 61.0459 12.6917H59.0072C59.4852 15.5237 61.949 17.6891 64.9159 17.6891C66.5185 17.6891 68.0252 17.0656 69.1585 15.9326L69.2765 15.8147L67.8619 14.4006L67.7439 14.5186Z" fill="black"/>
<path fill-rule="evenodd" clip-rule="evenodd" d="M59.0061 10.6919C58.9513 11.0176 58.9159 11.3505 58.9159 11.6917C58.9159 11.8682 58.9262 12.0425 58.9426 12.2152C58.957 12.3761 58.9802 12.5344 59.0069 12.6919H59.0061H51.2353C51.6817 14.4639 53.2706 15.819 55.1053 15.819C56.0898 15.819 57.0941 15.3572 57.9333 14.5187L58.0509 14.4008L59.4655 15.8149L59.3475 15.9328C58.2145 17.0657 56.7079 17.6893 55.1053 17.6893C51.797 17.6893 49.1052 14.9988 49.1052 11.6917C49.1052 8.38459 51.797 5.69415 55.1053 5.69415C57.1337 5.69415 58.9262 6.70725 60.0104 8.25296C61.0951 6.70725 62.8872 5.69415 64.9156 5.69415C66.5182 5.69415 68.0249 6.31807 69.1582 7.451L69.2762 7.56894L67.8616 8.98301L67.7436 8.86508C66.9045 8.02622 65.9001 7.56437 64.9156 7.56437C63.0813 7.56437 61.4924 8.91986 61.0456 10.6919H61.0148H59.0061ZM58.9738 10.692C58.527 8.91991 56.9397 7.56442 55.1053 7.56442C53.2706 7.56442 51.6817 8.91991 51.2353 10.692H58.9738Z" fill="black"/>
<path d="M35.7838 14.0039L32.6669 6.2362H30.8793L27.7625 14.0039L24.8625 5.99957H22.75L26.891 17.3833H28.5149L31.7729 9.51441L35.0314 17.3833H36.6553L40.7962 5.99957H38.6841L35.7838 14.0039Z" fill="black"/>
<path d="M78.7264 12.6916H78.5974C78.1506 14.4637 76.5617 15.8191 74.7274 15.8191C72.8926 15.8191 71.3038 14.4637 70.8574 12.6916H68.8145C69.2753 15.5235 71.6543 17.6894 74.6212 17.6894C76.3136 17.6894 77.7514 16.9468 78.7264 15.7362V17.3835H80.7271V12.6916H80.0055H78.7264Z" fill="black"/>
</svg>
