<svg viewBox="0 0 140 35" fill="none" xmlns="http://www.w3.org/2000/svg">
<path fill-rule="evenodd" clip-rule="evenodd" d="M0.4375 13.5531H6.9288V14.4093H1.58596V17.0663H5.97748V17.8976H1.58596V21.0282H7.37188V21.8846H0.4375V13.5531Z" fill="black"/>
<path fill-rule="evenodd" clip-rule="evenodd" d="M20.5079 17.6683L16.5183 13.5531H17.8089C17.8089 13.5531 20.6201 16.4622 21.2388 17.0527C21.8607 16.4622 24.6597 13.5531 24.6597 13.5531H25.9591L21.9464 17.6683L26.0946 21.8846H24.7541L21.2388 18.3086L17.7252 21.8846H16.3865L20.5079 17.6683Z" fill="black"/>
<path fill-rule="evenodd" clip-rule="evenodd" d="M39.2911 13.5531L39.2985 13.58L39.3094 13.5531H40.6719L44.8175 21.8846H43.6489L42.5688 19.7172H37.3054L36.2616 21.8846H35.1094L39.2911 13.5531ZM42.2066 18.9739L39.9418 14.3866L37.684 18.9739H42.2066Z" fill="black"/>
<path fill-rule="evenodd" clip-rule="evenodd" d="M54.5251 13.5645L55.4103 13.5531L61.8848 20.5161C61.8743 20.4875 61.8848 20.4495 61.8848 20.3346V13.5645H62.8464V21.8846H61.9108L55.4713 15.0249C55.4713 15.0497 55.4835 15.1259 55.4835 15.269V21.8846H54.5251V13.5645Z" fill="black"/>
<path fill-rule="evenodd" clip-rule="evenodd" d="M72.5551 13.5531H80.8763V14.3999H77.2861V21.8846H76.1362V14.3999H72.5551V13.5531Z" fill="black"/>
<path fill-rule="evenodd" clip-rule="evenodd" d="M90.584 13.5531H97.0828V14.4093H91.7346V17.0663H96.1256V17.8976H91.7346V21.0282H97.5184V21.8846H90.584V13.5531Z" fill="black"/>
<path fill-rule="evenodd" clip-rule="evenodd" d="M125.256 32.6904V27.6992L139.125 25.7031L125.256 33.6875L111.388 25.7031L111.389 25.7024L125.252 17.7212L118.322 13.7265L125.254 1.75364V17.7201L125.256 17.7188V27.6992L113.697 26.0354L125.256 32.6904ZM114.855 11.7304L118.322 13.7265L111.388 25.7031V9.73438L125.256 1.75L114.855 11.7304ZM114.855 11.7304L112.254 10.2333V22.2099L114.855 11.7304ZM138.259 24.2062V10.2335L132.191 13.727L125.257 1.75L139.126 9.73438V25.7031L125.257 17.7188L132.191 13.727L138.259 24.2062Z" fill="black"/>
</svg>
