<svg width="141" height="52" xmlns="http://www.w3.org/2000/svg"><g fill="#000" fill-rule="evenodd"><path d="M44.2 33.4c.4-.4.4-1 0-1.3a1 1 0 0 0-1.4 0 1 1 0 0 0 0 1.3c.4.4 1 .4 1.4 0M6.2 41.7h1.5v-5.5h1.6v-1.5H7.7v-.1c0-1 .5-1.5 1.6-1.4v-1.4c-2-.2-3.1.9-3.1 2.8v.1H5v1.5h1v5.5zM15 39.8c-.4.4-1 .6-1.5.6-.7 0-1.2-.2-1.6-.6-.4-.4-.6-1-.6-1.6a2.1 2.1 0 0 1 2.2-2.2c.6 0 1 .2 1.5.7.4.4.6.9.6 1.5 0 .7-.2 1.2-.6 1.6m2.1-1.6a3.5 3.5 0 0 0-3.7-3.7c-1 0-1.8.4-2.6 1.1-.7.7-1 1.6-1 2.6s.3 2 1 2.6c.8.8 1.6 1.1 2.7 1.1a3.5 3.5 0 0 0 3.7-3.7M20.6 36.7c.5-.4 1-.5 1.5-.5v-1.6c-1 0-1.7.4-2.1 1.3v-1.2h-1.5v7H20v-3.5c0-.7.2-1.2.6-1.5M28.2 38.2c0-.7.3-1.2.7-1.5.4-.4 1-.5 1.5-.5v-1.6c-1 0-1.8.4-2.2 1.3v-1.2h-1.5v7h1.5v-3.5zM34.7 36c1 0 1.7.5 2 1.6h-4.1a2 2 0 0 1 2-1.7m.2 6c1.3 0 2.4-.5 3-1.5l-1.2-.7a2 2 0 0 1-1.8.8c-1.2 0-2-.6-2.2-1.6H38v-.7c0-1-.3-1.9-1-2.6-.6-.7-1.4-1-2.4-1-1.1 0-2 .3-2.7 1-.7.7-1 1.6-1 2.6s.3 2 1 2.7c.7.7 1.7 1 2.8 1M39.5 41.7H41v-10h-1.5zM42.7 41.7h1.5v-7h-1.5zM47.7 36.6c.4-.4 1-.6 1.6-.6.6 0 1.1.2 1.5.6.5.5.7 1 .7 1.6 0 .7-.2 1.2-.7 1.6-.4.5-1 .7-1.5.7a2.1 2.1 0 0 1-2.2-2.3c0-.6.2-1.1.6-1.6M49 42c1 0 1.9-.4 2.5-1.2v1H53v-7h-1.5v1a2.8 2.8 0 0 0-2.5-1.1c-1 0-1.8.3-2.4 1-.7.7-1 1.6-1 2.6s.3 2 1 2.6c.6.8 1.5 1.1 2.4 1.1M56.8 36.6c.5-.4 1-.6 1.6-.6.6 0 1.2.2 1.6.6.4.5.6 1 .6 1.6 0 .7-.2 1.2-.6 1.6-.4.5-1 .7-1.6.7a2.1 2.1 0 0 1-2.2-2.3c0-.6.2-1.1.6-1.6zm-.6 4.1c.6.8 1.4 1.2 2.5 1.2 1 0 1.7-.3 2.4-1 .7-.8 1-1.7 1-2.7 0-1-.3-1.9-1-2.6-.7-.7-1.5-1-2.4-1-1.1 0-2 .4-2.5 1.1V32h-1.5v9.8h1.5v-1zM63.5 41.7H65v-10h-1.5zM70 36c1 0 1.8.5 2 1.6h-4a2 2 0 0 1 2-1.7zm2 3.7a2 2 0 0 1-1.8.8c-1.2 0-2-.6-2.3-1.6h5.6v-.7c0-1-.3-1.9-1-2.6-.6-.7-1.4-1-2.5-1-1 0-2 .3-2.6 1-.7.7-1 1.6-1 2.6s.3 2 1 2.7c.7.7 1.6 1 2.7 1 1.4 0 2.4-.5 3.1-1.5l-1.2-.7zM6.8 47.6A2 2 0 0 1 9 45.9c1 0 1.8.6 2 1.7H7zm2.1-3c-1 0-2 .3-2.6 1-.7.7-1 1.5-1 2.6 0 1 .3 2 1 2.6.7.7 1.6 1 2.8 1 1.3 0 2.3-.4 3-1.5l-1.2-.7a2 2 0 0 1-1.8.9c-1.2 0-2-.6-2.3-1.7h5.6v-.6c0-1-.3-1.9-1-2.6-.6-.7-1.4-1-2.5-1zM13.8 49H19v-1.5h-5.2zM24 50.4a2.1 2.1 0 0 1-2.2-2.2c0-.6.2-1.2.6-1.6.5-.4 1-.6 1.6-.6a2 2 0 0 1 1.8 1l1.3-.7a3.4 3.4 0 0 0-3-1.8 3.6 3.6 0 0 0-3.8 3.7 3.6 3.6 0 0 0 3.7 3.7c1.4 0 2.6-.7 3.2-1.9l-1.3-.7c-.4.7-1 1-1.9 1M33 49.8c-.4.4-1 .6-1.5.6-.6 0-1.2-.2-1.6-.6-.4-.5-.6-1-.6-1.6a2.1 2.1 0 0 1 2.2-2.2c.6 0 1.1.2 1.5.6.4.4.6 1 .6 1.6 0 .6-.2 1.1-.6 1.6m-1.5-5.3c-1 0-2 .4-2.6 1-.8.8-1.1 1.7-1.1 2.7 0 1 .3 1.9 1 2.6.8.7 1.7 1 2.7 1a3.5 3.5 0 0 0 3.7-3.7c0-1-.4-1.8-1.1-2.5-.7-.7-1.6-1-2.6-1M44.1 44.5c-1 0-1.7.4-2.1 1.1-.5-.7-1.1-1-2-1-.9 0-1.6.3-2 1v-.9h-1.5v7H38v-4c0-1.1.6-1.8 1.5-1.8s1.4.6 1.4 1.5v4.3h1.5v-4c0-1.2.6-1.8 1.5-1.8.8 0 1.3.6 1.3 1.5v4.3h1.5v-4.4c0-1.7-1-2.8-2.6-2.8M56 44.5c-1 0-1.6.4-2.1 1.1-.4-.7-1-1-2-1-.9 0-1.5.3-2 1v-.9h-1.5v7H50v-4c0-1.1.7-1.8 1.6-1.8.8 0 1.3.6 1.3 1.5v4.3h1.5v-4c0-1.2.6-1.8 1.5-1.8.8 0 1.4.6 1.4 1.5v4.3h1.5v-4.4c0-1.7-1-2.8-2.7-2.8M61.5 47.6a2 2 0 0 1 2-1.7c1 0 1.9.6 2 1.7h-4zm2.1-3c-1 0-2 .3-2.6 1-.7.7-1 1.5-1 2.6 0 1 .3 2 1 2.6.7.7 1.6 1 2.7 1 1.4 0 2.4-.4 3-1.5l-1.2-.7a2 2 0 0 1-1.8.9c-1.1 0-2-.6-2.2-1.7h5.6v-.6c0-1-.3-1.9-1-2.6-.6-.7-1.5-1-2.5-1zM70 45.9v-1.2h-1.6v7H70v-3.5c0-.8.2-1.3.7-1.6.4-.3 1-.4 1.5-.4v-1.6c-1 0-1.8.4-2.2 1.3M76.4 50.4c-.7 0-1.2-.2-1.6-.7-.4-.4-.6-.9-.6-1.5s.2-1.2.6-1.6c.4-.4 1-.6 1.6-.6a2 2 0 0 1 1.8 1l1.3-.7a3.4 3.4 0 0 0-3.1-1.8 3.6 3.6 0 0 0-3.7 3.7 3.6 3.6 0 0 0 3.7 3.7c1.3 0 2.5-.7 3.1-1.9l-1.3-.7c-.3.7-1 1-1.8 1M81.7 47.6a2 2 0 0 1 2.1-1.7c1 0 1.8.6 2 1.7h-4zm5.6.6c0-1-.3-1.9-1-2.6-.6-.7-1.4-1-2.5-1-1 0-2 .3-2.6 1-.7.7-1 1.5-1 2.6 0 1 .3 2 1 2.6.7.7 1.6 1 2.7 1 1.4 0 2.4-.4 3.1-1.5l-1.2-.7a2 2 0 0 1-1.8.9c-1.2 0-2-.6-2.3-1.7h5.6v-.6zM137.2 15.9h3V0h-3zM137.2 25.8h3v-7h-3zM83.1 11.4a7.7 7.7 0 0 0-6-3c-4.5 0-8 3.3-8.7 7.5h3a6 6 0 0 1 5.8-4.7c2.7 0 5 2 5.7 4.7h3.2v-7h-3v2.5zM97 8.5a7.8 7.8 0 0 0-6.2 3V8.8h-3v7H91a6 6 0 0 1 5.7-4.7c2.7 0 5.1 2 5.8 4.7h3A8.6 8.6 0 0 0 97 8.5M96.7 23.5a6 6 0 0 1-5.7-4.6h-3.1v12.9h2.9v-8.5c1.4 1.9 3.6 3 6.2 3 4.4 0 7.8-3.2 8.5-7.4h-3a6 6 0 0 1-5.8 4.6M132.5 11.4a7.7 7.7 0 0 0-6-3c-4.5 0-8 3.3-8.7 7.5h3a6 6 0 0 1 5.8-4.7c2.7 0 5 2 5.7 4.7h3.2v-7h-3v2.5zM132.5 18.9h-.2a6 6 0 0 1-5.7 4.6 6 6 0 0 1-5.8-4.6h-3a8.7 8.7 0 0 0 8.6 7.4c2.5 0 4.7-1.1 6.1-3v2.5h3v-7h-3zM40.7 11.4v-3h-.2a6.2 6.2 0 0 0-5.5 3V9h-3v17h3v-8.5c0-3.5 2.3-6 5.5-6h.2zM27.4 25.8h3V9h-3zM111.5 15.9h3v-4h3.8v-3h-3.8V4.3h-3v4.6h-4.7v7h3v-4h1.7zM114.5 21V19h-3v2.4c0 2.9 2.3 5 5.6 5h1.2v-3h-1.2c-1.8 0-2.6-.7-2.6-2.3M106.8 25.8h3v-7h-3zM66.8 21.6a6 6 0 0 1-4.2 1.9 6 6 0 0 1-5.7-4.6h-3a9 9 0 0 0 15 4.8l.2-.2-2.1-2.1-.2.2z"/><path d="M48 11.2c2.8 0 5.1 2 5.8 4.7H42.3a6 6 0 0 1 5.8-4.7m5.6 6.2l.1-1.5h3a6 6 0 0 1 5.8-4.7 6 6 0 0 1 4.2 2l.2.1 2.1-2-.2-.2a8.9 8.9 0 0 0-13.6 1.2 8.9 8.9 0 0 0-16.2 5 9 9 0 0 0 15.3 6.4l.1-.2-2-2.1-.2.2a6 6 0 0 1-4.2 1.9 6 6 0 0 1-5.8-4.6h11.5a9.2 9.2 0 0 1 0-1.5M19.4 20.8L14.7 9.3h-2.6L7.4 20.8 3.1 9H0l6.2 17h2.4L13.4 14l4.8 11.7h2.5L26.8 9h-3.1zM83.1 18.9H83a6 6 0 0 1-5.7 4.6 6 6 0 0 1-5.8-4.6h-3a8.7 8.7 0 0 0 8.6 7.4c2.6 0 4.7-1.1 6.1-3v2.5h3v-7h-3z"/></g></svg>