<svg xmlns="http://www.w3.org/2000/svg" width="160" height="22" viewBox="0 0 160 22">
    <g fill="#1B2022" fill-rule="evenodd" >
        <path d="M157.407 12.715c-.083.525-.216.98-.4 1.36-.184.381-.421.68-.711.897-.291.217-.645.325-1.061.325-.455 0-.845-.108-1.17-.325a2.483 2.483 0 0 1-.799-.897 4.536 4.536 0 0 1-.457-1.36 9.464 9.464 0 0 1-.146-1.715c0-.617.037-1.189.11-1.715a4.71 4.71 0 0 1 .377-1.36c.18-.38.419-.68.72-.897.299-.217.672-.326 1.118-.326.465 0 .86.109 1.184.326.324.217.585.516.784.897.199.381.344.835.436 1.36.092.526.138 1.098.138 1.715 0 .618-.04 1.189-.123 1.715zm1.336-5.47a4.217 4.217 0 0 0-1.532-1.092c-.61-.26-1.313-.391-2.107-.391-.794 0-1.496.13-2.107.39a4.28 4.28 0 0 0-1.54 1.093 4.697 4.697 0 0 0-.944 1.664 6.587 6.587 0 0 0-.32 2.091c0 .753.107 1.45.32 2.09.213.642.528 1.197.944 1.665.417.468.93.832 1.54 1.093.61.26 1.313.39 2.107.39.794 0 1.497-.13 2.107-.39.61-.26 1.12-.625 1.532-1.093a4.762 4.762 0 0 0 .937-1.664c.213-.641.32-1.338.32-2.09 0-.753-.107-1.45-.32-2.092a4.766 4.766 0 0 0-.937-1.664zM133.906 6.705h.753c.835-.001 1.168.25 1.354.404.587.487.813 1.267.768 1.811-.074.903-.505 2.49-2.28 2.49h-.595V6.706zm1.09 9.125l-1.09-.592v-2.84h.576c1.857 0 2.763-.45 3.339-.948.81-.701 1.018-1.745 1.018-2.467 0-.502-.089-1.128-.302-1.579-.177-.375-.597-.946-1.08-1.175-.621-.295-1.298-.467-3.2-.467h-3.676v.393l1.175.61v8.47l-1.175.595v.408h4.414v-.408zM143.74 6.705h.76c.842-.001 1.179.25 1.366.404.592.487.819 1.267.775 1.811-.064.788-.332 1.673-1.79 2.162l-1.11.373v-4.75zm-3.353 9.125v.408h4.452v-.408l-1.098-.592v-2.836l1.283-.43c.564 1.01 1.817 3.275 2.224 3.776l.621.49h2.325v-.509l-.9-.473-2.405-3.998c.346-.184.693-.409.99-.68.45-.409.837-1.147.837-1.87 0-.5-.09-.939-.267-1.315-.179-.376-.64-.935-1.127-1.164-.626-.295-1.308-.467-3.227-.467h-3.708v.393l1.186.61v8.47l-1.186.595zM130.58 1.571H160V.524h-29.42zM130.58 21.476H160V20.43h-29.42zM30.08 13.077l.149 1.678h-.119l-.74-1.683L20.48.524h-6.824V1.67l2.255 1.175v16.442l-2.493 1.205v1.146h4.928V6.708l-.164-1.173h.09l.344 1.082L29.463 22h3.112V3.026L35.097 1.7V.524H30.08v12.553M49.06 10.848a14.675 14.675 0 0 0-2.386-1.504 33.84 33.84 0 0 1-2.386-1.322c-.729-.446-1.337-.937-1.823-1.474-.486-.537-.729-1.19-.729-1.96 0-.85.272-1.72.86-2.165.589-.445 1.297-.744 2.149-.744.507 0 .999.05 1.475.15.477.103.837.214 1.08.335l1.435 4.46h1.15l.91-5.56S48.992.43 47.932.257A21.552 21.552 0 0 0 44.493 0c-1.01 0-1.95.117-2.817.35-.87.232-1.621.587-2.258 1.063a5.02 5.02 0 0 0-1.5 1.808c-.363.729-.545 1.59-.545 2.582 0 1.155.238 2.123.712 2.902a7.454 7.454 0 0 0 1.803 2.021 13.943 13.943 0 0 0 2.333 1.474 41.54 41.54 0 0 1 2.333 1.26c.727.426 1.328.893 1.803 1.4.474.506.711 1.134.711 1.883 0 1.033-.368 1.838-1.106 2.416a4.412 4.412 0 0 1-2.772.959c-.666 0-1.202-.096-1.605-.289-.405-.192-.718-.4-.94-.623l-1.242-4.56h-1.142l-1.1 5.926c.222.182.56.355 1.015.516a16.64 16.64 0 0 0 5.378.912c2.646 0 4.65-.552 6.014-1.656 1.363-1.104 2.045-2.67 2.045-4.695 0-1.114-.243-2.05-.73-2.81a7.907 7.907 0 0 0-1.823-1.991M81.424 14.412c-.248 1.018-.63 1.926-1.146 2.724-.516.798-1.992 2.542-4.973 2.542H73.31V2.322h1.995c2.98 0 4.457 1.744 4.973 2.542a8.837 8.837 0 0 1 1.146 2.724c.248 1.018.373 2.135.373 3.232 0 1.098-.125 2.574-.373 3.592zM80.836 1.57C79.496.97 77.533.524 74.165.524H66.58v1.138l2.442.867v16.942l-2.442.867v1.138h7.584c3.368 0 5.324-.46 6.67-1.046 2.224-.967 4.067-2.612 4.945-4.64.553-1.279.93-3.273.93-4.97 0-1.696-.377-3.331-.93-4.61-.878-2.028-2.804-3.681-4.944-4.64zM102.533 15.73l-1.386 3.8H95.12v-7.869h6.077V9.716H95.12V2.469h5.79l1.18 3.532h1.133l.591-5.477H88.258v1.138l2.425.867v16.942l-2.425.868v1.137h16l-.592-5.747h-1.133M123.747 15.746c-.628-.902-1.622-2.743-2.292-3.91 1.125-.383 1.972-1.131 2.623-1.986.703-.922 1.055-2.106 1.055-3.55 0-1.002-.187-1.88-.558-2.631-.372-.752-1.213-1.753-2.228-2.212-1.306-.59-2.727-.933-6.727-.933h-8.265v.786l2.47 1.22v16.94l-2.47 1.19v.816h9.279v-.817l-2.29-1.182V2.41h2.12c3.215 0 4.583 2.2 4.583 4.337 0 3.724-3.2 5.019-3.977 5.051v.67h.02c.967 1.646 1.808 2.93 2.457 4.237.712 1.437 1.53 2.7 2.455 3.791l1.295.981h5.22V20.46l-2.131-.947c-1.005-1.209-1.736-2.468-2.64-3.766M54.194 1.661l2.411.868v16.942l-2.411.868v1.137h9.29V20.34l-2.412-.868V2.529l2.412-.868V.524h-9.29V1.66M0 2.53h3.956v16.94l-2.413 1.19v.816h9.296v-.817l-2.414-1.188V2.529l2.414-1.218V.524H3.165L0 2.529"/>
    </g>
</svg>
