<?xml version="1.0" encoding="UTF-8"?>
<svg width="161px" height="35px" viewBox="0 0 161 35" version="1.1" xmlns="http://www.w3.org/2000/svg" xmlns:xlink="http://www.w3.org/1999/xlink">
    <!-- Generator: Sketch 51.1 (57501) - http://www.bohemiancoding.com/sketch -->
    <title>updown_logo</title>
    <desc>Created with Sketch.</desc>
    <defs>
        <path d="M38.7651555,16.6843607 L42.3991628,9.90711628 L38.7966318,10.8650039 L35.0605581,9.82037597 L35.0595292,9.82005935 L38.7651555,16.6843607 Z M40.4493469,19.8043536 L48.1639612,34.0958062 L38.7960078,31.6046744 L29.4280543,34.0951822 L37.1175079,19.7553571 L29.4280543,5.41596512 L29.4297191,5.41726709 L29.4280543,5.41534109 L38.7966318,7.90647287 L48.1645853,5.41596512 L40.4493469,19.8043536 Z M42.4399878,29.6656301 L42.3991628,29.604655 L38.7962717,22.8859375 L35.1941008,29.604031 L38.7960078,28.6461434 L42.4399878,29.6656301 Z" id="path-1"></path>
    </defs>
    <g id="Home" stroke="none" stroke-width="1" fill="none" fill-rule="evenodd">
        <g id="Home-Desktop-HD" transform="translate(-230.000000, -3379.000000)">
            <g id="updown_logo" transform="translate(230.000000, 3379.500000)">
                <mask id="mask-2" fill="white">
                    <use xlink:href="#path-1"></use>
                </mask>
                <use id="Combined-Shape" fill="#000000" xlink:href="#path-1"></use>
                <path d="M3.36914341,11.1121202 L3.36914341,21.9715078 C3.36914341,23.2932054 3.81033333,24.0963333 4.19848062,24.5368992 C4.69084109,25.1328488 5.59818217,25.7294225 6.94546512,25.7294225 C8.29337209,25.7294225 9.20071318,25.1328488 9.69307364,24.5368992 C10.081845,24.0963333 10.5224109,23.2932054 10.5224109,21.9715078 L10.5224109,11.1121202 L13.8921783,11.1121202 L13.8921783,21.6863256 C13.8921783,23.3187907 13.6325814,24.9774651 12.5960659,26.2997868 C11.3517481,27.932876 9.17450388,28.7877984 6.94546512,28.7877984 C4.71705039,28.7877984 2.5398062,27.932876 1.29548837,26.2997868 C0.26022093,24.9780891 0,23.3194147 0,21.6863256 L0,11.1121202 L3.36914341,11.1121202 Z" id="Shape" fill="#000000" fill-rule="nonzero"></path>
                <path d="M22.861376,11.1127442 C24.8052326,11.1127442 26.1531395,11.3199225 27.4230426,12.4344419 C28.8227442,13.6787597 29.1853062,15.3630194 29.1853062,16.6073372 C29.1853062,17.2819147 29.0817171,19.1471434 27.7600194,20.4688411 C26.8015078,21.4279767 25.3755969,21.9983411 23.3799457,21.9983411 L21.2027016,21.9983411 L21.2027016,28.3996512 L17.8335581,28.3996512 L17.8335581,11.1127442 L22.861376,11.1127442 Z M21.2027016,19.0947248 L22.5761938,19.0947248 C23.223938,19.0947248 24.0532752,19.0947248 24.7790233,18.5505698 C25.4011822,18.0582093 25.7125736,17.2812907 25.7125736,16.5287093 C25.7125736,15.5701977 25.2457984,14.9218295 24.753438,14.5592674 C24.0532752,14.066907 23.1721434,14.0144884 22.3690155,14.0144884 L21.2027016,14.0144884 L21.2027016,19.0947248 Z" id="Shape" fill="#000000" fill-rule="nonzero"></path>
                <path d="M54.9047442,11.1121202 C57.315376,11.1121202 59.4146163,11.3717171 61.3328876,12.7970039 C63.4315039,14.3782984 64.6502364,16.8918953 64.6502364,19.7686783 C64.6502364,22.6454612 63.4583372,25.1340969 61.1768798,26.7409767 C59.1556434,28.1662636 57.2635814,28.3996512 54.8535736,28.3996512 L50.3954961,28.3996512 L50.3954961,11.1121202 L54.9047442,11.1121202 Z M53.7646395,25.4966589 L54.8017791,25.4966589 C55.6567016,25.4966589 57.5231783,25.4448643 59.025845,24.3565543 C60.3993372,23.3712093 61.1768798,21.6089457 61.1768798,19.7686783 C61.1768798,17.9546202 60.4255465,16.1923566 59.0514302,15.1558411 C57.6523527,14.1187016 55.9418837,14.0151124 54.8017791,14.0151124 L53.7646395,14.0151124 L53.7646395,25.4966589 Z" id="Shape" fill="#000000" fill-rule="nonzero"></path>
                <path d="M85.3874109,19.7686783 C85.3874109,25.0305078 81.6032868,28.7877984 76.1604884,28.7877984 C70.7176899,28.7877984 66.9335659,25.0305078 66.9335659,19.7686783 C66.9335659,14.5074729 70.7176899,10.7233488 76.1604884,10.7233488 C81.6032868,10.7239729 85.3874109,14.5080969 85.3874109,19.7686783 M81.9140543,19.7686783 C81.9140543,16.2697364 79.5296318,13.7811008 76.1604884,13.7811008 C72.791345,13.7811008 70.4069225,16.2697364 70.4069225,19.7686783 C70.4069225,23.2676202 72.791345,25.7294225 76.1604884,25.7294225 C79.5296318,25.7294225 81.9140543,23.2682442 81.9140543,19.7686783" id="Shape" fill="#000000" fill-rule="nonzero"></path>
                <polygon id="Shape" fill="#000000" fill-rule="nonzero" points="94.3297752 28.7877984 91.9459767 28.7877984 85.8292248 11.1127442 89.4055465 11.1127442 93.2670504 22.8794729 97.4923643 10.9573605 99.3582171 10.9573605 103.349519 22.8794729 107.496829 11.1127442 111.073151 11.1127442 104.567628 28.7877984 102.183205 28.7877984 98.3479109 17.4366744"></polygon>
                <polygon id="Shape" fill="#000000" fill-rule="nonzero" points="116.466651 16.7103023 126.694519 28.3990271 129.32169 28.3990271 129.32169 11.1121202 125.952547 11.1121202 125.952547 22.7496744 115.770233 11.1121202 113.097508 11.1121202 113.097508 28.3990271 116.466651 28.3990271"></polygon>
                <path d="M138.599783,5.89085271 C138.151105,5.47649612 137.599461,5.23499612 136.874337,5.23499612 C135.477132,5.23499612 134.769481,6.2527907 134.769481,7.33985271 C134.769481,8.56482558 135.683686,9.46218217 136.942981,9.46218217 C137.408508,9.46218217 138.030043,9.32427132 138.599159,8.80632558 L138.599159,10.8600116 C138.185426,11.0665659 137.52957,11.3255388 136.666535,11.3255388 C135.493357,11.3255388 134.458089,10.8768605 133.785384,10.2384767 C133.216267,9.70368217 132.595357,8.77200388 132.595357,7.37479845 C132.595357,6.06308527 133.129527,5.01096899 133.888973,4.33826357 C134.803802,3.52702326 135.855919,3.37163953 136.580419,3.37163953 C137.356089,3.37163953 137.995721,3.52702326 138.598535,3.82031783 L138.598535,5.89085271 L138.599783,5.89085271 Z" id="Shape" fill="#000000" fill-rule="nonzero"></path>
                <rect id="Rectangle-path" fill="#000000" fill-rule="nonzero" x="140.023822" y="0" width="2.10548062" height="11.0840388"></rect>
                <path d="M145.658198,3.61313953 L145.658198,7.84032558 C145.658198,8.2372093 145.693143,8.77200388 146.1075,9.15141473 C146.366473,9.37544186 146.780205,9.53082558 147.177089,9.53082558 C147.573973,9.53082558 147.987705,9.37544186 148.246678,9.15141473 C148.661035,8.77200388 148.695357,8.2372093 148.695357,7.84032558 L148.695357,3.61313953 L150.800213,3.61313953 L150.800213,8.18541473 C150.800213,8.85812016 150.714097,9.75547674 149.886008,10.4799767 C149.195205,11.0840388 148.091295,11.3255388 147.177089,11.3255388 C146.26226,11.3255388 145.158349,11.0840388 144.468171,10.4799767 C143.640081,9.75547674 143.552717,8.85812016 143.552717,8.18541473 L143.552717,3.61313953 L145.658198,3.61313953 Z" id="Shape" fill="#000000" fill-rule="nonzero"></path>
                <path d="M154.339093,4.57913953 C155.080442,3.54449612 156.133182,3.37163953 156.770942,3.37163953 C158.979388,3.37163953 160.446484,5.0796124 160.446484,7.33985271 C160.446484,9.61756589 158.927593,11.3255388 156.719147,11.3255388 C156.237395,11.3255388 155.149085,11.2394225 154.339093,10.1174147 L154.339093,11.0840388 L152.234236,11.0840388 L152.234236,0 L154.339093,0 L154.339093,4.57913953 Z M154.131915,7.33985271 C154.131915,8.53050388 154.994326,9.46218217 156.201826,9.46218217 C157.410574,9.46218217 158.27236,8.53050388 158.27236,7.33985271 C158.27236,6.14920155 157.40995,5.23499612 156.201826,5.23499612 C154.994326,5.23499612 154.131915,6.14920155 154.131915,7.33985271 Z" id="Shape" fill="#000000" fill-rule="nonzero"></path>
            </g>
        </g>
    </g>
</svg>