<svg viewBox="0 0 140 35" fill="none" xmlns="http://www.w3.org/2000/svg">
<path fill-rule="evenodd" clip-rule="evenodd" d="M119.197 16.9444V10.5669L122.771 10.5669V22.6123C122.775 22.9644 122.828 23.2063 122.931 23.34C123.05 23.4854 123.249 23.5706 123.523 23.5946V26.5471C123.195 26.6158 122.912 26.6616 122.678 26.6861L122.003 26.7159C121.377 26.7202 120.873 26.5956 120.489 26.3404C120.098 26.0981 119.874 25.7295 119.817 25.2378L119.761 24.6434C119.336 25.3625 118.774 25.8972 118.073 26.2493C117.364 26.5934 116.609 26.7644 115.805 26.7644C115.002 26.7644 114.262 26.6158 113.586 26.3154C112.902 26.0208 112.314 25.6027 111.825 25.062C111.339 24.5241 110.955 23.8929 110.675 23.1695C110.403 22.4467 110.267 21.6568 110.267 20.8003C110.259 19.9677 110.385 19.1831 110.644 18.4475C110.899 17.7199 111.256 17.0898 111.714 16.5566C112.175 16.0191 112.721 15.5999 113.351 15.3016C113.989 14.99 114.688 14.8345 115.447 14.8345C116.266 14.8388 117.006 15.0284 117.665 15.405C118.328 15.7762 118.839 16.2897 119.197 16.9444ZM115.631 23.5946C115.986 23.7358 116.361 23.8066 116.757 23.8066C116.769 23.8072 116.782 23.8072 116.795 23.8072C117.271 23.8072 117.733 23.6681 118.178 23.3885C118.639 23.1099 118.984 22.7168 119.21 22.2119V19.8059C118.992 19.2242 118.631 18.7448 118.129 18.3687C117.639 17.998 117.124 17.8116 116.583 17.8116C116.196 17.8196 115.844 17.9016 115.528 18.0598C115.201 18.2372 114.922 18.4614 114.686 18.7326C114.443 19.0159 114.262 19.3387 114.143 19.7025C114.01 20.0583 113.945 20.4413 113.945 20.8541C113.94 21.2829 114.015 21.6792 114.167 22.043C114.299 22.4026 114.489 22.7168 114.735 22.9885C114.982 23.2548 115.282 23.4567 115.631 23.5946ZM89.5001 11.3978V15.047H88.0116V17.7082H89.5001V23.7038C89.5001 24.2689 89.5886 24.7456 89.7657 25.1345C89.9351 25.5217 90.1681 25.837 90.4652 26.0799C90.7698 26.3175 91.1158 26.4896 91.5035 26.5956C91.8989 26.7042 92.3203 26.7612 92.77 26.7644C93.4092 26.7644 94.044 26.6792 94.6734 26.5109C95.3039 26.3282 95.8666 26.1385 96.3608 25.9399L95.6629 23.1578C95.4522 23.2633 95.2089 23.3575 94.9336 23.4422C94.6571 23.536 94.3818 23.5781 94.1054 23.5706C93.8045 23.5706 93.5607 23.487 93.376 23.3213C93.1778 23.1594 93.0817 22.8856 93.0855 22.4973V17.7082H95.4647V15.047H93.0855V11.3978H89.5001ZM53.2774 15.38C54.0235 15.0168 54.8849 14.8346 55.8608 14.8346H55.9042C56.3761 14.8346 56.7883 14.8953 57.1402 15.0168C57.5112 15.1302 57.8283 15.29 58.0917 15.4951C58.3638 15.7055 58.5805 15.9393 58.7412 16.1987C58.9014 16.4736 59.0193 16.7628 59.0931 17.0659C59.5384 16.3548 60.1277 15.8051 60.8608 15.4173C61.5983 15.0285 62.4309 14.8346 63.3573 14.8346C64.1128 14.8346 64.7134 14.9704 65.1625 15.241C65.616 15.5121 65.9679 15.8616 66.2193 16.2898C66.4751 16.7218 66.6413 17.1953 66.7201 17.7083C66.8059 18.217 66.8498 18.7107 66.8498 19.1869V26.5472H63.2775V20.0903C63.2726 19.3345 63.1314 18.7826 62.8512 18.4359C62.5628 18.0961 62.1973 17.9261 61.7574 17.9261C61.5218 17.9341 61.2812 17.9837 61.0341 18.0721C60.787 18.1775 60.5578 18.3208 60.3482 18.5019C60.1418 18.6846 59.9523 18.9025 59.779 19.1571C59.602 19.4 59.4657 19.6685 59.3717 19.963V26.5472H55.7858V20.0903C55.7912 19.3345 55.6528 18.7826 55.3731 18.4359C55.0842 18.0961 54.7192 17.9261 54.2788 17.9261C53.8009 17.9229 53.3355 18.1083 52.882 18.4844C52.4242 18.8604 52.0907 19.3531 51.8811 19.963V26.5472H48.3142V15.0471H51.5341V16.9748C51.9631 16.2754 52.5442 15.7449 53.2774 15.38ZM103.048 14.8345C102.055 14.8345 101.168 14.9986 100.39 15.3261C99.599 15.6409 98.9403 16.0777 98.4118 16.6354C97.8764 17.1809 97.4636 17.828 97.1764 18.5759C96.8999 19.3024 96.7614 20.0849 96.7614 20.9206C96.7614 21.6967 96.8999 22.4392 97.1764 23.1455C97.456 23.8572 97.8726 24.4814 98.4249 25.0189C98.9565 25.5521 99.6169 25.9777 100.408 26.2978C101.188 26.6009 102.067 26.7564 103.048 26.7644C104.403 26.7644 105.567 26.4837 106.539 25.9217C107.505 25.3486 108.216 24.6093 108.678 23.7038L105.643 22.8733C105.483 23.2968 105.156 23.6324 104.667 23.879C104.193 24.1294 103.692 24.2556 103.165 24.2556C102.506 24.2556 101.92 24.0527 101.41 23.6489C100.898 23.2489 100.612 22.6624 100.551 21.8906H109.216L109.309 20.7763C109.309 19.9757 109.168 19.222 108.888 18.5141C108.612 17.7993 108.203 17.1681 107.664 16.6232C107.133 16.0777 106.482 15.6452 105.711 15.3261C104.941 14.998 104.065 14.8345 103.082 14.8345H103.048ZM103.005 17.3503C102.305 17.3503 101.729 17.5687 101.274 18.0055C100.83 18.438 100.566 19.0079 100.484 19.7148H105.527C105.462 18.9871 105.194 18.4135 104.724 17.9927C104.266 17.5644 103.693 17.3503 103.005 17.3503ZM80.2547 15.3934C79.4634 15.7689 78.8552 16.2962 78.4316 16.9748V15.0471H75.2117V26.5472H78.7781V19.963C78.8845 19.6685 79.0333 19.4 79.2223 19.1571C79.4075 18.9025 79.616 18.6846 79.8463 18.5019C80.0945 18.3208 80.3427 18.1775 80.5936 18.0721C80.8494 17.9837 81.1019 17.9341 81.3484 17.9261C81.8264 17.9261 82.2087 18.0961 82.4987 18.4359C82.7909 18.7826 82.9348 19.3345 82.9304 20.0903V26.5472H86.5087V19.1869C86.5087 18.7107 86.4685 18.217 86.3855 17.7083C86.3078 17.1953 86.1405 16.7218 85.8853 16.2898C85.6246 15.8616 85.2689 15.5121 84.8149 15.241C84.3462 14.9704 83.7325 14.8346 82.9739 14.8346C81.9567 14.8346 81.0498 15.021 80.2547 15.3934ZM72.7511 26.5472H69.1853V15.0471L72.7511 15.0471V26.5472Z" fill="black"/>
<path d="M128.158 13.738V11.1581H129.11V10.603H126.531V11.1581H127.488V13.738H128.158Z" fill="black"/>
<path d="M130.108 13.738L130.108 11.5672C130.108 11.5123 130.107 11.4437 130.106 11.3613C130.105 11.2514 130.104 11.1666 130.104 11.1071V11.1071L130.702 13.738H131.348L131.95 11.1071C131.95 11.1666 131.95 11.2514 131.948 11.3613C131.947 11.4711 131.946 11.5566 131.946 11.6175V13.738H132.566V10.603H131.609L131.035 13.0681L130.456 10.603H129.488V13.738H130.108Z" fill="black"/>
<path d="M69.1812 13.7233H72.7519V10.5423H69.1812V13.7233Z" fill="black"/>
<path fill-rule="evenodd" clip-rule="evenodd" d="M30.4611 7.40065C30.0278 7.4619 29.5549 7.59244 29.0376 7.79188V7.79188C28.5215 7.99011 27.9656 8.25965 27.3697 8.59366V8.59366C26.7127 8.92968 26.0231 9.34992 25.2989 9.84146V9.84146L23.1439 11.1424L21.0377 9.84146C19.9714 9.14081 19.0008 8.58439 18.1251 8.17343V8.17343C17.2547 7.76448 16.4861 7.50783 15.8173 7.40065V7.40065C14.509 7.17422 13.6561 7.061 13.2566 7.061V7.061C12.3409 7.061 11.4901 7.20726 10.7052 7.50783V7.50783C9.92521 7.80759 9.20958 8.25965 8.55748 8.86038V8.86038C8.27725 9.10132 8.03572 9.36482 7.83329 9.64766V9.64766C7.41703 10.1718 7.10259 10.7315 6.88997 11.3318V11.3318C6.67655 11.9313 6.56902 12.5643 6.5625 13.2287V13.2287L6.5625 27.795H6.58857L6.5959 27.7865C6.58409 27.7515 6.5792 27.7156 6.5792 27.6765V27.6765C6.5792 27.3135 6.81421 26.9787 7.2875 26.6604V26.6604C7.71843 26.3622 8.36645 26.085 9.23076 25.8083V25.8083C9.36598 25.7607 9.50772 25.714 9.66087 25.6781V25.6781C9.81239 25.6326 9.96757 25.5919 10.1228 25.5528V25.5528L10.5024 25.4513C10.6425 25.4154 10.7899 25.3751 10.9402 25.3445V25.3445C11.0921 25.3078 11.2445 25.2744 11.3944 25.2526V25.2526L13.105 24.9339L13.105 13.6231C13.1112 12.9108 13.3877 12.3016 13.9384 11.7895V11.7895C14.4785 11.2617 15.0414 10.9978 15.632 10.9978V10.9978C15.7656 10.9918 15.9069 11.001 16.0523 11.0224V11.0224C16.1936 11.0482 16.3419 11.078 16.4991 11.1146V11.1146C16.6747 11.1481 16.8555 11.1972 17.0473 11.2649V11.2649C17.231 11.3258 17.4249 11.3995 17.6269 11.4801V11.4801C18.3352 11.7847 19.0863 12.3411 19.8846 13.1578V13.1578V24.2619L26.4186 24.2619L26.4264 24.2526L26.4264 13.1578C26.7306 12.8121 27.0475 12.5212 27.379 12.2803V12.2803C27.8185 11.9217 28.2511 11.6521 28.6841 11.4801V11.4801C28.8808 11.3995 29.0747 11.3258 29.2657 11.2649V11.2649C29.449 11.1972 29.629 11.1481 29.805 11.1146V11.1146C29.9557 11.078 30.1047 11.0482 30.2514 11.0224V11.0224C30.3968 11.001 30.5369 10.9918 30.6709 10.9978V10.9978C31.2501 10.9978 31.8138 11.2617 32.3653 11.7895V11.7895C32.9033 12.3016 33.1815 12.9108 33.1986 13.6231V13.6231V24.9617C33.4662 25.004 33.7375 25.0504 34.0071 25.102V25.102C34.2759 25.1455 34.5395 25.1974 34.7993 25.2526V25.2526C34.9676 25.2744 35.1301 25.3078 35.2865 25.3445V25.3445C35.4421 25.3719 35.5956 25.4066 35.741 25.4513V25.4513L36.2876 25.5943C36.9047 25.7543 37.4403 25.9255 37.8883 26.0991V26.0991C38.3319 26.2813 38.6932 26.4642 38.9746 26.6604V26.6604C39.3888 26.9473 39.6259 27.2599 39.6833 27.5831V27.5831L39.6915 27.5782L39.7245 26.2527H39.7322L39.7412 26.2438V13.2287C39.7245 12.5643 39.6104 11.9313 39.3966 11.3318V11.3318C39.184 10.7315 38.8769 10.1718 38.4785 9.64766V9.64766C38.2537 9.36482 38.0069 9.10132 37.7393 8.86038V8.86038C37.0802 8.25965 36.3638 7.80759 35.5895 7.50783V7.50783C34.8038 7.20726 33.9542 7.061 33.0475 7.061V7.061C32.6414 7.061 31.78 7.17422 30.4611 7.40065" fill="black"/>
<path d="M22.0315 25.5528C21.6617 25.5585 21.3 25.5641 20.9457 25.5762V25.5762C20.5852 25.5859 20.2333 25.6012 19.8846 25.6173V25.6173C18.6892 25.662 17.5434 25.737 16.449 25.8349V25.8349C15.3473 25.934 14.3062 26.0621 13.3246 26.2201V26.2201C13.2456 26.2321 13.1706 26.237 13.0981 26.2438V26.2438C12.8097 26.2857 12.5234 26.3361 12.2383 26.3852V26.3852C11.9516 26.434 11.6697 26.4928 11.3944 26.5537V26.5537L10.5024 26.7692C9.74437 26.9501 9.09634 27.1439 8.55748 27.3458V27.3458C8.01862 27.5472 7.59298 27.762 7.27814 27.9755V27.9755C7.19301 28.0271 7.11888 28.0835 7.05086 28.1443V28.1443C6.97673 28.1991 6.91645 28.2616 6.86513 28.3285V28.3285C6.6794 28.5356 6.5792 28.7535 6.5625 28.9759V28.9759V30.76L6.64763 30.7358L6.65455 30.725C6.76737 30.4836 6.97673 30.2608 7.2875 30.0501V30.0501V30.0348H7.31072L7.32701 30.0251C7.66996 29.7858 8.13144 29.5706 8.70981 29.3744V29.3744C8.96153 29.2765 9.24053 29.1802 9.54316 29.0956V29.0956C9.84049 29.0045 10.1606 28.9207 10.5024 28.8442V28.8442C10.6425 28.8047 10.7899 28.764 10.9402 28.7282V28.7282L13.0981 28.3333C13.1706 28.3115 13.2456 28.2974 13.3246 28.2854V28.2854C14.3062 28.1347 15.3444 28.0114 16.4405 27.9207V27.9207C17.5345 27.8172 18.677 27.7459 19.8683 27.6999V27.6999H19.8846C20.2333 27.685 20.5852 27.6713 20.9457 27.6705V27.6705C21.3 27.6572 21.6617 27.6488 22.0315 27.6415V27.6415C22.3957 27.6391 22.7643 27.6335 23.1357 27.6335V27.6335H23.1439C23.5129 27.6335 23.8844 27.6391 24.255 27.6415V27.6415C24.6204 27.6488 24.9812 27.6572 25.3409 27.6705V27.6705C25.6997 27.6713 26.0545 27.685 26.4011 27.6999V27.6999H26.4186C27.1884 27.7297 27.9379 27.7733 28.6678 27.8248V27.8248C29.3972 27.8772 30.1064 27.9356 30.7984 28.009V28.009L31.6989 28.1165C31.7388 28.1286 31.78 28.1347 31.8244 28.1347V28.1347L31.9348 28.1443L34.7993 28.625C34.9618 28.6516 35.1195 28.6887 35.2795 28.7282V28.7282C35.4278 28.764 35.5785 28.8047 35.7247 28.8442V28.8442C36.622 29.0654 37.3666 29.2975 37.9555 29.5356V29.5356L38.9335 30.0348H38.9575L38.9746 30.0501C39.2834 30.2673 39.4939 30.5026 39.6068 30.7499V30.7499L39.6153 30.7423L39.6752 28.8067C39.6454 28.7282 39.6133 28.6431 39.5742 28.5585V28.5585C39.5281 28.4767 39.4764 28.3966 39.421 28.3285V28.3285C39.3587 28.2696 39.2919 28.2112 39.2202 28.1528V28.1528C39.1404 28.0928 39.063 28.0303 38.9852 27.9755V27.9755C38.6634 27.7551 38.2341 27.5444 37.6953 27.3458V27.3458C37.1503 27.1439 36.4998 26.9501 35.741 26.7692V26.7692C35.5956 26.7277 35.4421 26.6907 35.2865 26.6532V26.6532C35.1301 26.6117 34.9675 26.5815 34.7993 26.5537V26.5537C34.7309 26.5347 34.6694 26.5194 34.6136 26.5097V26.5097L33.1986 26.2676H33.1815C33.0345 26.2346 32.8838 26.2068 32.7261 26.183V26.183C32.5685 26.1612 32.408 26.1435 32.2476 26.1278V26.1278L31.8244 26.067C31.78 26.0573 31.7388 26.048 31.6989 26.0452V26.0452L30.7984 25.9449C30.1064 25.8578 29.3972 25.7918 28.6678 25.737V25.737C27.9379 25.6802 27.1884 25.6411 26.4186 25.6173V25.6173H26.4011C26.0545 25.6012 25.6997 25.5859 25.3409 25.5762V25.5762C24.9812 25.5641 24.6204 25.5585 24.255 25.5528V25.5528C23.8844 25.546 23.5105 25.5432 23.1357 25.5432V25.5432C22.7643 25.5432 22.3957 25.546 22.0315 25.5528" fill="black"/>
<path d="M34.9913 30.7249C34.4292 30.9191 33.6639 31.0843 32.6925 31.2253V31.2253C32.5353 31.2491 32.3723 31.2709 32.2045 31.2926V31.2926C32.0355 31.3112 31.8673 31.3261 31.6991 31.3511V31.3511C31.3732 31.3833 31.0323 31.4179 30.671 31.4514V31.4514C30.3187 31.4788 29.9513 31.5066 29.5697 31.5432V31.5432C29.1823 31.5654 28.7848 31.5892 28.3812 31.6158V31.6158C27.9205 31.6371 27.4411 31.6605 26.9413 31.6847V31.6847C26.442 31.6992 25.9267 31.7137 25.4005 31.7233V31.7233C24.8673 31.735 24.3167 31.7499 23.7493 31.7576V31.7576H22.8907C21.9413 31.7576 21.0248 31.7499 20.1377 31.7233V31.7233C19.2506 31.6959 18.401 31.6605 17.5855 31.6158V31.6158C17.1689 31.5892 16.7632 31.5577 16.3636 31.5247V31.5247C15.9661 31.4913 15.5726 31.457 15.1837 31.4179V31.4179C14.7984 31.3784 14.4212 31.341 14.0562 31.3019V31.3019C12.9227 31.1512 12.0246 30.9763 11.3619 30.7838V30.7838C10.6939 30.5815 10.261 30.3627 10.0663 30.1173V30.1173C9.4928 30.2886 9.03417 30.4788 8.69326 30.6927V30.6927C8.17028 30.9667 7.90472 31.2801 7.89209 31.6158V31.6158V31.6347C7.89209 31.9361 8.11489 32.2282 8.55763 32.507V32.507C9.00037 32.7842 9.6655 33.0477 10.5534 33.2991V33.2991C10.8051 33.3603 11.078 33.4248 11.3721 33.4913V33.4913C11.6625 33.5501 11.9712 33.6174 12.2975 33.6807V33.6807C13.763 33.9691 15.3812 34.1891 17.1567 34.3386V34.3386C18.9349 34.4837 20.8574 34.5566 22.9237 34.5566V34.5566C24.5358 34.5566 26.0612 34.5147 27.4969 34.4309V34.4309C28.931 34.3434 30.2588 34.2165 31.4897 34.0485V34.0485C31.5561 34.0336 31.6262 34.0207 31.6991 34.0155V34.0155C31.739 34.0074 31.7838 34.0002 31.8343 34.0002V34.0002C32.1821 33.9486 32.5267 33.8994 32.8615 33.8495V33.8495C33.1923 33.7955 33.5201 33.7346 33.8468 33.6722V33.6722C34.173 33.6114 34.4879 33.5501 34.7995 33.4832V33.4832L35.7501 33.2657C36.6197 33.0271 37.2767 32.7725 37.7186 32.4973V32.4973C38.1516 32.2282 38.3711 31.9361 38.3764 31.6347V31.6347V31.6158C38.3667 31.2801 38.1035 30.9618 37.5858 30.6677V30.6677C37.2042 30.4582 36.6906 30.2547 36.0458 30.0662V30.0662C35.8984 30.3136 35.5469 30.534 34.9913 30.7249" fill="black"/>
<path fill-rule="evenodd" clip-rule="evenodd" d="M22.1651 0.809919L22.1162 0.886471L20.1106 3.42639C19.9832 3.62503 19.9204 3.85428 19.9257 4.10811V4.10811C19.9257 4.36597 19.9872 4.59402 20.1106 4.80353V4.80353C20.1571 4.88008 20.2125 4.95261 20.2801 5.01747V5.01747L22.0384 7.3084L22.0901 7.35715C22.0963 7.35715 22.104 7.36602 22.1162 7.38213V7.38213C22.1337 7.40067 22.1488 7.42242 22.1651 7.44297V7.44297C22.2164 7.49213 22.2718 7.53806 22.3349 7.58077V7.58077C22.3956 7.62952 22.4592 7.66658 22.5292 7.69962V7.69962C22.7072 7.77618 22.9096 7.81888 23.1357 7.82452V7.82452C23.354 7.82452 23.5564 7.78584 23.7422 7.69962V7.69962C23.7968 7.66658 23.8558 7.62952 23.9185 7.58077V7.58077C23.9739 7.53806 24.0277 7.49213 24.0774 7.44297V7.44297C24.1063 7.42242 24.1389 7.391 24.1796 7.35715V7.35715L25.9636 5.01747C26.0263 4.95261 26.0854 4.88008 26.14 4.80353V4.80353C26.2699 4.59402 26.333 4.36597 26.333 4.10811V4.10811C26.333 3.85428 26.2699 3.62503 26.14 3.42639V3.42639L24.1112 0.842957C24.0949 0.84054 24.0831 0.828855 24.0774 0.809919V0.809919C23.8143 0.556893 23.4986 0.427157 23.1357 0.427157V0.427157C23.128 0.426755 23.1202 0.426755 23.1125 0.426755V0.426755C22.7451 0.426755 22.4307 0.555282 22.1651 0.809919" fill="black"/>
<mask id="mask0" mask-type="alpha" maskUnits="userSpaceOnUse" x="19" y="0" width="8" height="8">
<path fill-rule="evenodd" clip-rule="evenodd" d="M22.1651 0.809919L22.1162 0.886471L20.1106 3.42639C19.9832 3.62503 19.9204 3.85428 19.9257 4.10811V4.10811C19.9257 4.36597 19.9872 4.59402 20.1106 4.80353V4.80353C20.1571 4.88008 20.2125 4.95261 20.2801 5.01747V5.01747L22.0384 7.3084L22.0901 7.35715C22.0963 7.35715 22.104 7.36602 22.1162 7.38213V7.38213C22.1337 7.40067 22.1488 7.42242 22.1651 7.44297V7.44297C22.2164 7.49213 22.2718 7.53806 22.3349 7.58077V7.58077C22.3956 7.62952 22.4592 7.66658 22.5292 7.69962V7.69962C22.7072 7.77618 22.9096 7.81888 23.1357 7.82452V7.82452C23.354 7.82452 23.5564 7.78584 23.7422 7.69962V7.69962C23.7968 7.66658 23.8558 7.62952 23.9185 7.58077V7.58077C23.9739 7.53806 24.0277 7.49213 24.0774 7.44297V7.44297C24.1063 7.42242 24.1389 7.391 24.1796 7.35715V7.35715L25.9636 5.01747C26.0263 4.95261 26.0854 4.88008 26.14 4.80353V4.80353C26.2699 4.59402 26.333 4.36597 26.333 4.10811V4.10811C26.333 3.85428 26.2699 3.62503 26.14 3.42639V3.42639L24.1112 0.842957C24.0949 0.84054 24.0831 0.828855 24.0774 0.809919V0.809919C23.8143 0.556893 23.4986 0.427157 23.1357 0.427157V0.427157C23.128 0.426755 23.1202 0.426755 23.1125 0.426755V0.426755C22.7451 0.426755 22.4307 0.555282 22.1651 0.809919" fill="white"/>
</mask>
<g mask="url(#mask0)">
</g>
</svg>
