<svg xmlns="http://www.w3.org/2000/svg" width="307" height="35" viewBox="0 0 307 35">
    <g fill="#000" fill-rule="evenodd">
        <path d="M248.954.92h-5.976v33.7h24.969v-5.67h-18.993zM213.269 34.62h6V.931h-6zM81.33 6.747h13.301V34.62h6.021V6.7h12.207V1.094H81.33zM165.45 6.747h13.304V34.62h6.018V6.7h12.207V1.094H165.45zM23.412 3.98c-2.845-1.766-6.214-2.648-10.6-2.777 0 0-3.907-.112-5.792-.112H.801v13.61h5.93V6.722L9.7 6.72c1.752 0 2.697.024 5.027.263 3.956.406 6.558 1.881 8.186 4.644.732 1.245 1.174 2.646 1.31 4.164.06.64.096 1.21.096 2.065 0 .857-.037 1.424-.096 2.061-.136 1.52-.578 2.921-1.31 4.17-1.628 2.76-4.227 4.235-8.184 4.642-2.329.238-3.282.262-5.051.262l-2.946-.002v-8.358H.803v13.99H7.02c1.968 0 4.168-.065 5.774-.11 4.404-.132 7.773-1.014 10.616-2.78 3.259-2.022 5.383-4.944 6.314-8.685.431-1.736.625-3.337.625-5.19 0-1.854-.194-3.454-.625-5.19C28.79 8.922 26.666 6 23.41 3.98M55.858 1.093L42.084 34.62h6.448L58.45 9.994l5.631 13.982h-5.63v5.184h7.717l2.2 5.46h6.447L61.04 1.093zM136.82 1.093L123.046 34.62h6.448l9.917-24.626 5.63 13.982h-5.63v5.184h7.718l2.199 5.46h6.448L142.002 1.093zM287.648 29.146V6.276h19.255V.925h-25.235V34.62h25.317v-5.474z"/>
        <path d="M293.731 20.691h7.444V14.62h-7.444z"/>
    </g>
</svg>
