<svg xmlns="http://www.w3.org/2000/svg" xmlns:xlink="http://www.w3.org/1999/xlink" width="317" height="59" viewBox="0 0 317 59">
    <defs>
        <path id="a" d="M.362.753h21.321v49.635H.362z"/>
        <path id="c" d="M0 .057h274.461V51.94H0z"/>
    </defs>
    <g fill="none" fill-rule="evenodd">
        <g transform="translate(78)">
            <mask id="b" fill="#fff">
                <use xlink:href="#a"/>
            </mask>
            <path fill="#1A1919" d="M5.362 15.317v.347h-5v8.611h5v26.113h8.959V24.275h7.362v-8.611h-7.362v-.347c0-4.306 2.43-6.251 7.362-5.903V.802C10.849.177 5.362 5.524 5.362 15.317" mask="url(#b)"/>
        </g>
        <path fill="#1A1919" d="M126.073 40.11c-1.806 1.806-4.098 2.709-6.875 2.709-2.778 0-5.07-.903-6.876-2.709-1.806-1.875-2.708-4.237-2.708-7.083 0-2.848.902-5.21 2.708-7.015 1.806-1.875 4.098-2.778 6.876-2.778 2.777 0 5.069.903 6.875 2.778 1.876 1.805 2.778 4.167 2.778 7.015 0 2.846-.902 5.208-2.778 7.083zm2.778-20.348c-2.708-3.403-6.459-5.07-11.32-5.07-4.653 0-8.612 1.805-11.945 5.347-3.264 3.542-4.931 7.848-4.931 12.988 0 5.139 1.667 9.514 4.931 13.056 3.333 3.542 7.292 5.278 11.945 5.278 4.861 0 8.612-1.667 11.32-5.069v4.096h8.959V15.664h-8.959v4.098zM160.243 29.346c-3.542-.903-6.32-1.945-6.32-3.82 0-1.737 1.736-2.848 4.029-2.848 2.568 0 4.444 1.181 5.555 3.542l7.639-4.167c-2.709-4.722-7.569-7.361-13.194-7.361-3.751 0-6.876.972-9.446 2.986-2.5 1.944-3.75 4.653-3.75 8.056 0 7.223 6.459 9.376 11.598 10.695 3.542.903 6.32 1.945 6.32 3.82 0 2.014-1.597 2.986-4.792 2.986-3.542 0-5.765-1.527-6.806-4.514l-7.778 4.375c2.569 5.486 7.43 8.265 14.584 8.265 3.959 0 7.292-.973 9.93-2.848 2.709-1.944 4.029-4.722 4.029-8.264.069-7.431-6.529-9.862-11.598-10.903M189.254 5.941l-8.959 2.709v7.014h-6.042v8.611h6.042v14.446c0 9.515 4.514 13.057 16.806 11.667v-8.125c-5.138.278-7.847.208-7.847-3.542V24.275h7.847v-8.611h-7.847V5.941M304.364 40.11c-1.805 1.806-4.097 2.709-6.875 2.709-2.778 0-5.07-.903-6.876-2.709-1.804-1.875-2.708-4.237-2.708-7.083 0-2.848.904-5.21 2.708-7.015 1.806-1.875 4.098-2.778 6.876-2.778 2.778 0 5.07.903 6.875 2.778 1.876 1.805 2.778 4.167 2.778 7.015 0 2.846-.902 5.208-2.778 7.083zm2.778-24.446v4.098c-2.708-3.403-6.458-5.07-11.32-5.07-4.652 0-8.611 1.805-11.944 5.347-3.265 3.542-4.932 7.848-4.932 12.988 0 5.139 1.667 9.514 4.932 13.056 3.333 3.542 7.292 5.278 11.944 5.278 4.862 0 8.612-1.667 11.32-5.069v4.096h8.959V15.664h-8.959zM226.896 35.2c0 10.721-14.515 10.721-14.515 0V15.664h-8.959v18.624c0 22.719 32.432 22.719 32.432 0V15.664h-8.958V35.2"/>
        <g transform="translate(0 7)">
            <mask id="d" fill="#fff">
                <use xlink:href="#c"/>
            </mask>
            <path fill="#1A1919" d="M242.028 24.765v18.623h8.958V23.853c0-10.722 14.516-10.722 14.516 0v19.535h8.959V24.765c0-22.72-32.433-22.72-32.433 0M37.473 8.664L32.504.057H22.56l4.969 8.607H17.362C7.773 8.664 0 16.437 0 26.026c0 9.589 7.773 17.362 17.362 17.362h5.405L27.739 52h9.944l-7.459-12.919 7.454-12.912h-9.944l-4.969 8.608h-5.403a8.75 8.75 0 0 1-8.75-8.751 8.75 8.75 0 0 1 8.75-8.751h30.451l-7.619 13.198h9.944L62.729 8.664H37.473" mask="url(#d)"/>
        </g>
    </g>
</svg>
